<svg width="1036" height="320" fill="none" xmlns="http://www.w3.org/2000/svg"><mask id="a" style="mask-type:alpha" maskUnits="userSpaceOnUse" x="0" y="0" width="1036" height="320"><path fill="url(#paint0_radial_1376_14787)" d="M0 0h1036v320H0z"/></mask><g mask="url(#a)" fill="#180033" stroke="#180033" stroke-width=".667"><circle cx="360" cy="2" r="2.333"/><circle opacity=".8" cx="388.444" cy="2" r="2.333"/><circle cx="416.889" cy="2" r="2.333"/><circle opacity=".4" cx="445.333" cy="2" r="2.333"/><circle cx="473.778" cy="2" r="2.333"/><circle cx="502.222" cy="2" r="2.333"/><circle opacity=".6" cx="530.667" cy="2" r="2.333"/><circle opacity=".4" cx="559.111" cy="2" r="2.333"/><circle opacity=".6" cx="587.556" cy="2" r="2.333"/><circle cx="616" cy="2" r="2.333"/><circle cx="644.444" cy="2" r="2.333"/><circle opacity=".4" cx="672.889" cy="2" r="2.333"/><circle cx="360" cy="30.445" r="2.333"/><circle opacity=".6" cx="388.444" cy="30.445" r="2.333"/><circle cx="416.889" cy="30.445" r="2.333"/><circle cx="445.333" cy="30.445" r="2.333"/><circle opacity=".6" cx="473.778" cy="30.445" r="2.333"/><circle opacity=".4" cx="502.222" cy="30.445" r="2.333"/><circle cx="530.667" cy="30.445" r="2.333"/><circle opacity=".4" cx="559.111" cy="30.445" r="2.333"/><circle cx="587.556" cy="30.445" r="2.333"/><circle cx="616" cy="30.445" r="2.333"/><circle opacity=".8" cx="644.444" cy="30.445" r="2.333"/><circle cx="672.889" cy="30.445" r="2.333"/><circle cx="360" cy="58.889" r="2.333"/><circle cx="388.444" cy="58.889" r="2.333"/><circle cx="416.889" cy="58.889" r="2.333"/><circle cx="445.333" cy="58.889" r="2.333"/><circle opacity=".6" cx="473.778" cy="58.889" r="2.333"/><circle cx="502.222" cy="58.889" r="2.333"/><circle opacity=".8" cx="530.667" cy="58.889" r="2.333"/><circle cx="559.111" cy="58.889" r="2.333"/><circle opacity=".4" cx="587.556" cy="58.889" r="2.333"/><circle opacity=".6" cx="616" cy="58.889" r="2.333"/><circle opacity=".6" cx="644.444" cy="58.889" r="2.333"/><circle cx="672.889" cy="58.889" r="2.333"/><circle opacity=".6" cx="360" cy="87.333" r="2.333"/><circle opacity=".8" cx="388.444" cy="87.333" r="2.333"/><circle opacity=".6" cx="416.889" cy="87.333" r="2.333"/><circle cx="445.333" cy="87.333" r="2.333"/><circle cx="473.778" cy="87.333" r="2.333"/><circle cx="502.222" cy="87.333" r="2.333"/><circle opacity=".4" cx="530.667" cy="87.333" r="2.333"/><circle opacity=".4" cx="559.111" cy="87.333" r="2.333"/><circle opacity=".6" cx="587.556" cy="87.333" r="2.333"/><circle opacity=".6" cx="616" cy="87.333" r="2.333"/><circle opacity=".4" cx="644.444" cy="87.333" r="2.333"/><circle cx="672.889" cy="87.333" r="2.333"/><circle cx="360" cy="115.778" r="2.333"/><circle cx="388.444" cy="115.778" r="2.333"/><circle cx="416.889" cy="115.778" r="2.333"/><circle opacity=".6" cx="445.333" cy="115.778" r="2.333"/><circle opacity=".6" cx="473.778" cy="115.778" r="2.333"/><circle opacity=".4" cx="502.222" cy="115.778" r="2.333"/><circle opacity=".8" cx="530.667" cy="115.778" r="2.333"/><circle cx="559.111" cy="115.778" r="2.333"/><circle opacity=".4" cx="587.556" cy="115.778" r="2.333"/><circle cx="616" cy="115.778" r="2.333"/><circle cx="644.444" cy="115.778" r="2.333"/><circle opacity=".4" cx="672.889" cy="115.778" r="2.333"/><circle opacity=".6" cx="360" cy="144.222" r="2.333"/><circle opacity=".6" cx="388.444" cy="144.222" r="2.333"/><circle opacity=".6" cx="416.889" cy="144.222" r="2.333"/><circle opacity=".6" cx="445.333" cy="144.222" r="2.333"/><circle cx="473.778" cy="144.222" r="2.333"/><circle opacity=".6" cx="502.222" cy="144.222" r="2.333"/><circle cx="530.667" cy="144.222" r="2.333"/><circle cx="559.111" cy="144.222" r="2.333"/><circle opacity=".4" cx="587.556" cy="144.222" r="2.333"/><circle opacity=".4" cx="616" cy="144.222" r="2.333"/><circle opacity=".4" cx="644.444" cy="144.222" r="2.333"/><circle cx="672.889" cy="144.222" r="2.333"/><circle opacity=".6" cx="360" cy="172.667" r="2.333"/><circle cx="388.444" cy="172.667" r="2.333"/><circle opacity=".8" cx="416.889" cy="172.667" r="2.333"/><circle opacity=".8" cx="445.333" cy="172.667" r="2.333"/><circle opacity=".4" cx="473.778" cy="172.667" r="2.333"/><circle cx="502.222" cy="172.667" r="2.333"/><circle cx="530.667" cy="172.667" r="2.333"/><circle opacity=".8" cx="559.111" cy="172.667" r="2.333"/><circle cx="587.556" cy="172.667" r="2.333"/><circle cx="616" cy="172.667" r="2.333"/><circle opacity=".6" cx="644.444" cy="172.667" r="2.333"/><circle opacity=".6" cx="672.889" cy="172.667" r="2.333"/><circle opacity=".6" cx="360" cy="201.111" r="2.333"/><circle opacity=".8" cx="388.444" cy="201.111" r="2.333"/><circle opacity=".8" cx="416.889" cy="201.111" r="2.333"/><circle cx="445.333" cy="201.111" r="2.333"/><circle cx="473.778" cy="201.111" r="2.333"/><circle opacity=".8" cx="502.222" cy="201.111" r="2.333"/><circle opacity=".4" cx="530.667" cy="201.111" r="2.333"/><circle opacity=".4" cx="559.111" cy="201.111" r="2.333"/><circle cx="587.556" cy="201.111" r="2.333"/><circle opacity=".4" cx="616" cy="201.111" r="2.333"/><circle opacity=".4" cx="644.444" cy="201.111" r="2.333"/><circle cx="672.889" cy="201.111" r="2.333"/><circle cx="360" cy="229.556" r="2.333"/><circle cx="388.444" cy="229.556" r="2.333"/><circle cx="416.889" cy="229.556" r="2.333"/><circle opacity=".4" cx="445.333" cy="229.556" r="2.333"/><circle cx="473.778" cy="229.556" r="2.333"/><circle opacity=".4" cx="502.222" cy="229.556" r="2.333"/><circle cx="530.667" cy="229.556" r="2.333"/><circle cx="559.111" cy="229.556" r="2.333"/><circle cx="587.556" cy="229.556" r="2.333"/><circle cx="616" cy="229.556" r="2.333"/><circle opacity=".6" cx="644.444" cy="229.556" r="2.333"/><circle opacity=".8" cx="672.889" cy="229.556" r="2.333"/><circle opacity=".6" cx="360" cy="258" r="2.333"/><circle opacity=".8" cx="388.444" cy="258" r="2.333"/><circle opacity=".4" cx="416.889" cy="258" r="2.333"/><circle opacity=".4" cx="445.333" cy="258" r="2.333"/><circle cx="473.778" cy="258" r="2.333"/><circle cx="502.222" cy="258" r="2.333"/><circle opacity=".6" cx="530.667" cy="258" r="2.333"/><circle opacity=".4" cx="559.111" cy="258" r="2.333"/><circle cx="587.556" cy="258" r="2.333"/><circle cx="616" cy="258" r="2.333"/><circle opacity=".4" cx="644.444" cy="258" r="2.333"/><circle opacity=".4" cx="672.889" cy="258" r="2.333"/><circle opacity=".6" cx="360" cy="286.444" r="2.333"/><circle cx="388.444" cy="286.444" r="2.333"/><circle opacity=".6" cx="416.889" cy="286.444" r="2.333"/><circle opacity=".8" cx="445.333" cy="286.444" r="2.333"/><circle opacity=".6" cx="473.778" cy="286.444" r="2.333"/><circle cx="502.222" cy="286.444" r="2.333"/><circle opacity=".6" cx="530.667" cy="286.444" r="2.333"/><circle opacity=".6" cx="559.111" cy="286.444" r="2.333"/><circle opacity=".8" cx="587.556" cy="286.444" r="2.333"/><circle opacity=".4" cx="616" cy="286.444" r="2.333"/><circle cx="644.444" cy="286.444" r="2.333"/><circle opacity=".4" cx="672.889" cy="286.444" r="2.333"/><circle opacity=".4" cx="360" cy="314.889" r="2.333"/><circle cx="388.444" cy="314.889" r="2.333"/><circle opacity=".4" cx="416.889" cy="314.889" r="2.333"/><circle cx="445.333" cy="314.889" r="2.333"/><circle cx="473.778" cy="314.889" r="2.333"/><circle opacity=".6" cx="502.222" cy="314.889" r="2.333"/><circle cx="530.667" cy="314.889" r="2.333"/><circle cx="559.111" cy="314.889" r="2.333"/><circle opacity=".6" cx="587.556" cy="314.889" r="2.333"/><circle cx="616" cy="314.889" r="2.333"/><circle opacity=".4" cx="644.444" cy="314.889" r="2.333"/><circle opacity=".8" cx="672.889" cy="314.889" r="2.333"/><circle cx="20" cy="2" r="2.333"/><circle opacity=".8" cx="48.444" cy="2" r="2.333"/><circle cx="76.889" cy="2" r="2.333"/><circle opacity=".4" cx="105.333" cy="2" r="2.333"/><circle cx="133.778" cy="2" r="2.333"/><circle cx="162.222" cy="2" r="2.333"/><circle opacity=".6" cx="190.667" cy="2" r="2.333"/><circle opacity=".4" cx="219.111" cy="2" r="2.333"/><circle opacity=".6" cx="247.556" cy="2" r="2.333"/><circle cx="276" cy="2" r="2.333"/><circle cx="304.444" cy="2" r="2.333"/><circle opacity=".4" cx="332.889" cy="2" r="2.333"/><circle cx="20" cy="30.445" r="2.333"/><circle opacity=".6" cx="48.444" cy="30.445" r="2.333"/><circle cx="76.889" cy="30.445" r="2.333"/><circle cx="105.333" cy="30.445" r="2.333"/><circle opacity=".6" cx="133.778" cy="30.445" r="2.333"/><circle opacity=".4" cx="162.222" cy="30.445" r="2.333"/><circle cx="190.667" cy="30.445" r="2.333"/><circle opacity=".4" cx="219.111" cy="30.445" r="2.333"/><circle cx="247.556" cy="30.445" r="2.333"/><circle cx="276" cy="30.445" r="2.333"/><circle opacity=".8" cx="304.444" cy="30.445" r="2.333"/><circle cx="332.889" cy="30.445" r="2.333"/><circle cx="20" cy="58.889" r="2.333"/><circle cx="48.444" cy="58.889" r="2.333"/><circle cx="76.889" cy="58.889" r="2.333"/><circle cx="105.333" cy="58.889" r="2.333"/><circle opacity=".6" cx="133.778" cy="58.889" r="2.333"/><circle cx="162.222" cy="58.889" r="2.333"/><circle opacity=".8" cx="190.667" cy="58.889" r="2.333"/><circle cx="219.111" cy="58.889" r="2.333"/><circle opacity=".4" cx="247.556" cy="58.889" r="2.333"/><circle opacity=".6" cx="276" cy="58.889" r="2.333"/><circle opacity=".6" cx="304.444" cy="58.889" r="2.333"/><circle cx="332.889" cy="58.889" r="2.333"/><circle opacity=".6" cx="20" cy="87.333" r="2.333"/><circle opacity=".8" cx="48.444" cy="87.333" r="2.333"/><circle opacity=".6" cx="76.889" cy="87.333" r="2.333"/><circle cx="105.333" cy="87.333" r="2.333"/><circle cx="133.778" cy="87.333" r="2.333"/><circle cx="162.222" cy="87.333" r="2.333"/><circle opacity=".4" cx="190.667" cy="87.333" r="2.333"/><circle opacity=".4" cx="219.111" cy="87.333" r="2.333"/><circle opacity=".6" cx="247.556" cy="87.333" r="2.333"/><circle opacity=".6" cx="276" cy="87.333" r="2.333"/><circle opacity=".4" cx="304.444" cy="87.333" r="2.333"/><circle cx="332.889" cy="87.333" r="2.333"/><circle cx="20" cy="115.778" r="2.333"/><circle cx="48.444" cy="115.778" r="2.333"/><circle cx="76.889" cy="115.778" r="2.333"/><circle opacity=".6" cx="105.333" cy="115.778" r="2.333"/><circle opacity=".6" cx="133.778" cy="115.778" r="2.333"/><circle opacity=".4" cx="162.222" cy="115.778" r="2.333"/><circle opacity=".8" cx="190.667" cy="115.778" r="2.333"/><circle cx="219.111" cy="115.778" r="2.333"/><circle opacity=".4" cx="247.556" cy="115.778" r="2.333"/><circle cx="276" cy="115.778" r="2.333"/><circle cx="304.444" cy="115.778" r="2.333"/><circle opacity=".4" cx="332.889" cy="115.778" r="2.333"/><circle opacity=".6" cx="20" cy="144.222" r="2.333"/><circle opacity=".6" cx="48.444" cy="144.222" r="2.333"/><circle opacity=".6" cx="76.889" cy="144.222" r="2.333"/><circle opacity=".6" cx="105.333" cy="144.222" r="2.333"/><circle cx="133.778" cy="144.222" r="2.333"/><circle opacity=".6" cx="162.222" cy="144.222" r="2.333"/><circle cx="190.667" cy="144.222" r="2.333"/><circle cx="219.111" cy="144.222" r="2.333"/><circle opacity=".4" cx="247.556" cy="144.222" r="2.333"/><circle opacity=".4" cx="276" cy="144.222" r="2.333"/><circle opacity=".4" cx="304.444" cy="144.222" r="2.333"/><circle cx="332.889" cy="144.222" r="2.333"/><circle opacity=".6" cx="20" cy="172.667" r="2.333"/><circle cx="48.444" cy="172.667" r="2.333"/><circle opacity=".8" cx="76.889" cy="172.667" r="2.333"/><circle opacity=".8" cx="105.333" cy="172.667" r="2.333"/><circle opacity=".4" cx="133.778" cy="172.667" r="2.333"/><circle cx="162.222" cy="172.667" r="2.333"/><circle cx="190.667" cy="172.667" r="2.333"/><circle opacity=".8" cx="219.111" cy="172.667" r="2.333"/><circle cx="247.556" cy="172.667" r="2.333"/><circle cx="276" cy="172.667" r="2.333"/><circle opacity=".6" cx="304.444" cy="172.667" r="2.333"/><circle opacity=".6" cx="332.889" cy="172.667" r="2.333"/><circle opacity=".6" cx="20" cy="201.111" r="2.333"/><circle opacity=".8" cx="48.444" cy="201.111" r="2.333"/><circle opacity=".8" cx="76.889" cy="201.111" r="2.333"/><circle cx="105.333" cy="201.111" r="2.333"/><circle cx="133.778" cy="201.111" r="2.333"/><circle opacity=".8" cx="162.222" cy="201.111" r="2.333"/><circle opacity=".4" cx="190.667" cy="201.111" r="2.333"/><circle opacity=".4" cx="219.111" cy="201.111" r="2.333"/><circle cx="247.556" cy="201.111" r="2.333"/><circle opacity=".4" cx="276" cy="201.111" r="2.333"/><circle opacity=".4" cx="304.444" cy="201.111" r="2.333"/><circle cx="332.889" cy="201.111" r="2.333"/><circle cx="20" cy="229.556" r="2.333"/><circle cx="48.444" cy="229.556" r="2.333"/><circle cx="76.889" cy="229.556" r="2.333"/><circle opacity=".4" cx="105.333" cy="229.556" r="2.333"/><circle cx="133.778" cy="229.556" r="2.333"/><circle opacity=".4" cx="162.222" cy="229.556" r="2.333"/><circle cx="190.667" cy="229.556" r="2.333"/><circle cx="219.111" cy="229.556" r="2.333"/><circle cx="247.556" cy="229.556" r="2.333"/><circle cx="276" cy="229.556" r="2.333"/><circle opacity=".6" cx="304.444" cy="229.556" r="2.333"/><circle opacity=".8" cx="332.889" cy="229.556" r="2.333"/><circle opacity=".6" cx="20" cy="258" r="2.333"/><circle opacity=".8" cx="48.444" cy="258" r="2.333"/><circle opacity=".4" cx="76.889" cy="258" r="2.333"/><circle opacity=".4" cx="105.333" cy="258" r="2.333"/><circle cx="133.778" cy="258" r="2.333"/><circle cx="162.222" cy="258" r="2.333"/><circle opacity=".6" cx="190.667" cy="258" r="2.333"/><circle opacity=".4" cx="219.111" cy="258" r="2.333"/><circle cx="247.556" cy="258" r="2.333"/><circle cx="276" cy="258" r="2.333"/><circle opacity=".4" cx="304.444" cy="258" r="2.333"/><circle opacity=".4" cx="332.889" cy="258" r="2.333"/><circle opacity=".6" cx="20" cy="286.444" r="2.333"/><circle cx="48.444" cy="286.444" r="2.333"/><circle opacity=".6" cx="76.889" cy="286.444" r="2.333"/><circle opacity=".8" cx="105.333" cy="286.444" r="2.333"/><circle opacity=".6" cx="133.778" cy="286.444" r="2.333"/><circle cx="162.222" cy="286.444" r="2.333"/><circle opacity=".6" cx="190.667" cy="286.444" r="2.333"/><circle opacity=".6" cx="219.111" cy="286.444" r="2.333"/><circle opacity=".8" cx="247.556" cy="286.444" r="2.333"/><circle opacity=".4" cx="276" cy="286.444" r="2.333"/><circle cx="304.444" cy="286.444" r="2.333"/><circle opacity=".4" cx="332.889" cy="286.444" r="2.333"/><circle opacity=".4" cx="20" cy="314.889" r="2.333"/><circle cx="48.444" cy="314.889" r="2.333"/><circle opacity=".4" cx="76.889" cy="314.889" r="2.333"/><circle cx="105.333" cy="314.889" r="2.333"/><circle cx="133.778" cy="314.889" r="2.333"/><circle opacity=".6" cx="162.222" cy="314.889" r="2.333"/><circle cx="190.667" cy="314.889" r="2.333"/><circle cx="219.111" cy="314.889" r="2.333"/><circle opacity=".6" cx="247.556" cy="314.889" r="2.333"/><circle cx="276" cy="314.889" r="2.333"/><circle opacity=".4" cx="304.444" cy="314.889" r="2.333"/><circle opacity=".8" cx="332.889" cy="314.889" r="2.333"/><circle cx="705" cy="2" r="2.333"/><circle opacity=".8" cx="733.444" cy="2" r="2.333"/><circle cx="761.889" cy="2" r="2.333"/><circle opacity=".4" cx="790.333" cy="2" r="2.333"/><circle cx="818.778" cy="2" r="2.333"/><circle cx="847.222" cy="2" r="2.333"/><circle opacity=".6" cx="875.667" cy="2" r="2.333"/><circle opacity=".4" cx="904.111" cy="2" r="2.333"/><circle opacity=".6" cx="932.556" cy="2" r="2.333"/><circle cx="961" cy="2" r="2.333"/><circle cx="989.444" cy="2" r="2.333"/><circle opacity=".4" cx="1017.89" cy="2" r="2.333"/><circle cx="705" cy="30.445" r="2.333"/><circle opacity=".6" cx="733.444" cy="30.445" r="2.333"/><circle cx="761.889" cy="30.445" r="2.333"/><circle cx="790.333" cy="30.445" r="2.333"/><circle opacity=".6" cx="818.778" cy="30.445" r="2.333"/><circle opacity=".4" cx="847.222" cy="30.445" r="2.333"/><circle cx="875.667" cy="30.445" r="2.333"/><circle opacity=".4" cx="904.111" cy="30.445" r="2.333"/><circle cx="932.556" cy="30.445" r="2.333"/><circle cx="961" cy="30.445" r="2.333"/><circle opacity=".8" cx="989.444" cy="30.445" r="2.333"/><circle cx="1017.89" cy="30.445" r="2.333"/><circle cx="705" cy="58.889" r="2.333"/><circle cx="733.444" cy="58.889" r="2.333"/><circle cx="761.889" cy="58.889" r="2.333"/><circle cx="790.333" cy="58.889" r="2.333"/><circle opacity=".6" cx="818.778" cy="58.889" r="2.333"/><circle cx="847.222" cy="58.889" r="2.333"/><circle opacity=".8" cx="875.667" cy="58.889" r="2.333"/><circle cx="904.111" cy="58.889" r="2.333"/><circle opacity=".4" cx="932.556" cy="58.889" r="2.333"/><circle opacity=".6" cx="961" cy="58.889" r="2.333"/><circle opacity=".6" cx="989.444" cy="58.889" r="2.333"/><circle cx="1017.89" cy="58.889" r="2.333"/><circle opacity=".6" cx="705" cy="87.333" r="2.333"/><circle opacity=".8" cx="733.444" cy="87.333" r="2.333"/><circle opacity=".6" cx="761.889" cy="87.333" r="2.333"/><circle cx="790.333" cy="87.333" r="2.333"/><circle cx="818.778" cy="87.333" r="2.333"/><circle cx="847.222" cy="87.333" r="2.333"/><circle opacity=".4" cx="875.667" cy="87.333" r="2.333"/><circle opacity=".4" cx="904.111" cy="87.333" r="2.333"/><circle opacity=".6" cx="932.556" cy="87.333" r="2.333"/><circle opacity=".6" cx="961" cy="87.333" r="2.333"/><circle opacity=".4" cx="989.444" cy="87.333" r="2.333"/><circle cx="1017.89" cy="87.333" r="2.333"/><circle cx="705" cy="115.778" r="2.333"/><circle cx="733.444" cy="115.778" r="2.333"/><circle cx="761.889" cy="115.778" r="2.333"/><circle opacity=".6" cx="790.333" cy="115.778" r="2.333"/><circle opacity=".6" cx="818.778" cy="115.778" r="2.333"/><circle opacity=".4" cx="847.222" cy="115.778" r="2.333"/><circle opacity=".8" cx="875.667" cy="115.778" r="2.333"/><circle cx="904.111" cy="115.778" r="2.333"/><circle opacity=".4" cx="932.556" cy="115.778" r="2.333"/><circle cx="961" cy="115.778" r="2.333"/><circle cx="989.444" cy="115.778" r="2.333"/><circle opacity=".4" cx="1017.89" cy="115.778" r="2.333"/><circle opacity=".6" cx="705" cy="144.222" r="2.333"/><circle opacity=".6" cx="733.444" cy="144.222" r="2.333"/><circle opacity=".6" cx="761.889" cy="144.222" r="2.333"/><circle opacity=".6" cx="790.333" cy="144.222" r="2.333"/><circle cx="818.778" cy="144.222" r="2.333"/><circle opacity=".6" cx="847.222" cy="144.222" r="2.333"/><circle cx="875.667" cy="144.222" r="2.333"/><circle cx="904.111" cy="144.222" r="2.333"/><circle opacity=".4" cx="932.556" cy="144.222" r="2.333"/><circle opacity=".4" cx="961" cy="144.222" r="2.333"/><circle opacity=".4" cx="989.444" cy="144.222" r="2.333"/><circle cx="1017.89" cy="144.222" r="2.333"/><circle opacity=".6" cx="705" cy="172.667" r="2.333"/><circle cx="733.444" cy="172.667" r="2.333"/><circle opacity=".8" cx="761.889" cy="172.667" r="2.333"/><circle opacity=".8" cx="790.333" cy="172.667" r="2.333"/><circle opacity=".4" cx="818.778" cy="172.667" r="2.333"/><circle cx="847.222" cy="172.667" r="2.333"/><circle cx="875.667" cy="172.667" r="2.333"/><circle opacity=".8" cx="904.111" cy="172.667" r="2.333"/><circle cx="932.556" cy="172.667" r="2.333"/><circle cx="961" cy="172.667" r="2.333"/><circle opacity=".6" cx="989.444" cy="172.667" r="2.333"/><circle opacity=".6" cx="1017.89" cy="172.667" r="2.333"/><circle opacity=".6" cx="705" cy="201.111" r="2.333"/><circle opacity=".8" cx="733.444" cy="201.111" r="2.333"/><circle opacity=".8" cx="761.889" cy="201.111" r="2.333"/><circle cx="790.333" cy="201.111" r="2.333"/><circle cx="818.778" cy="201.111" r="2.333"/><circle opacity=".8" cx="847.222" cy="201.111" r="2.333"/><circle opacity=".4" cx="875.667" cy="201.111" r="2.333"/><circle opacity=".4" cx="904.111" cy="201.111" r="2.333"/><circle cx="932.556" cy="201.111" r="2.333"/><circle opacity=".4" cx="961" cy="201.111" r="2.333"/><circle opacity=".4" cx="989.444" cy="201.111" r="2.333"/><circle cx="1017.89" cy="201.111" r="2.333"/><circle cx="705" cy="229.556" r="2.333"/><circle cx="733.444" cy="229.556" r="2.333"/><circle cx="761.889" cy="229.556" r="2.333"/><circle opacity=".4" cx="790.333" cy="229.556" r="2.333"/><circle cx="818.778" cy="229.556" r="2.333"/><circle opacity=".4" cx="847.222" cy="229.556" r="2.333"/><circle cx="875.667" cy="229.556" r="2.333"/><circle cx="904.111" cy="229.556" r="2.333"/><circle cx="932.556" cy="229.556" r="2.333"/><circle cx="961" cy="229.556" r="2.333"/><circle opacity=".6" cx="989.444" cy="229.556" r="2.333"/><circle opacity=".8" cx="1017.89" cy="229.556" r="2.333"/><circle opacity=".6" cx="705" cy="258" r="2.333"/><circle opacity=".8" cx="733.444" cy="258" r="2.333"/><circle opacity=".4" cx="761.889" cy="258" r="2.333"/><circle opacity=".4" cx="790.333" cy="258" r="2.333"/><circle cx="818.778" cy="258" r="2.333"/><circle cx="847.222" cy="258" r="2.333"/><circle opacity=".6" cx="875.667" cy="258" r="2.333"/><circle opacity=".4" cx="904.111" cy="258" r="2.333"/><circle cx="932.556" cy="258" r="2.333"/><circle cx="961" cy="258" r="2.333"/><circle opacity=".4" cx="989.444" cy="258" r="2.333"/><circle opacity=".4" cx="1017.89" cy="258" r="2.333"/><circle opacity=".6" cx="705" cy="286.444" r="2.333"/><circle cx="733.444" cy="286.444" r="2.333"/><circle opacity=".6" cx="761.889" cy="286.444" r="2.333"/><circle opacity=".8" cx="790.333" cy="286.444" r="2.333"/><circle opacity=".6" cx="818.778" cy="286.444" r="2.333"/><circle cx="847.222" cy="286.444" r="2.333"/><circle opacity=".6" cx="875.667" cy="286.444" r="2.333"/><circle opacity=".6" cx="904.111" cy="286.444" r="2.333"/><circle opacity=".8" cx="932.556" cy="286.444" r="2.333"/><circle opacity=".4" cx="961" cy="286.444" r="2.333"/><circle cx="989.444" cy="286.444" r="2.333"/><circle opacity=".4" cx="1017.89" cy="286.444" r="2.333"/><circle opacity=".4" cx="705" cy="314.889" r="2.333"/><circle cx="733.444" cy="314.889" r="2.333"/><circle opacity=".4" cx="761.889" cy="314.889" r="2.333"/><circle cx="790.333" cy="314.889" r="2.333"/><circle cx="818.778" cy="314.889" r="2.333"/><circle opacity=".6" cx="847.222" cy="314.889" r="2.333"/><circle cx="875.667" cy="314.889" r="2.333"/><circle cx="904.111" cy="314.889" r="2.333"/><circle opacity=".6" cx="932.556" cy="314.889" r="2.333"/><circle cx="961" cy="314.889" r="2.333"/><circle opacity=".4" cx="989.444" cy="314.889" r="2.333"/><circle opacity=".8" cx="1017.89" cy="314.889" r="2.333"/></g><defs><radialGradient id="paint0_radial_1376_14787" cx="0" cy="0" r="1" gradientUnits="userSpaceOnUse" gradientTransform="matrix(0 160 -518 0 518 160)"><stop stop-color="#fff"/><stop offset=".266" stop-color="#fff" stop-opacity=".5"/><stop offset="1" stop-color="#fff" stop-opacity="0"/></radialGradient></defs></svg>