<svg width="138" height="28" viewBox="0 0 138 28" fill="none" xmlns="http://www.w3.org/2000/svg">
<path d="M30.5513 7.61084H36.1245V22.0512H30.5513V7.61084Z" fill="white"/>
<path d="M40.8602 7.61083H46.3169V10.9608C47.6724 8.41811 50.3619 7.06262 54.0011 7.06262C59.2592 7.06262 62.0868 9.86434 62.0868 15.2088V22.0555H56.5136V16.0506C56.5136 12.7006 54.9811 11.0558 51.7477 11.0558C48.5142 11.0558 46.4335 12.8733 46.4335 16.111V22.0598H40.8602V7.61948V7.61083Z" fill="white"/>
<path d="M62.8682 27.7409V23.7564C63.3603 23.8427 64.0812 23.8989 64.6295 23.8989C65.9591 23.8989 66.6239 23.0916 66.6239 20.9546V7.61084H72.1972V21.7058C72.1972 25.7206 70.4358 28 65.3245 28C64.5173 28 63.4769 27.9136 62.8682 27.7409Z" fill="white"/>
<path d="M96.7177 16.0419H80.6326C81.0643 17.9759 83.089 19.1026 86.3526 19.1026C88.7485 19.1026 90.8293 18.2954 91.8956 16.9657L96.1694 18.8134C94.1491 21.2396 90.7689 22.5951 86.1195 22.5951C79.3332 22.5951 75.2623 19.7373 75.2623 14.885C75.2623 10.0327 79.48 7.05829 85.977 7.05829C92.4741 7.05829 96.722 10.119 96.722 15.2303V16.0376L96.7177 16.0419ZM91.1747 13.1539C91.1186 11.3364 88.9816 10.0629 85.9468 10.0629C82.912 10.0629 80.952 11.276 80.6024 13.1539H91.1747Z" fill="white"/>
<path d="M99.0013 14.7727C99.0013 9.97658 103.219 7.06262 110.148 7.06262C115.98 7.06262 119.878 9.08294 120.832 12.6963L114.94 13.4474C114.361 11.7422 112.63 10.7623 109.971 10.7623C106.763 10.7623 104.773 12.2948 104.773 14.7468C104.773 17.1989 106.854 18.848 109.971 18.848C112.686 18.848 114.391 17.9241 114.966 16.1628L120.828 17.0003C119.904 20.4668 115.803 22.6038 110.083 22.6038C103.266 22.6038 98.9927 19.5732 98.9927 14.7771L99.0013 14.7727Z" fill="white"/>
<path d="M121.238 7.61078H125.512V4.23061L131.085 2.26636V7.61078H137.582V11.1033H131.085V15.2907C131.085 17.3413 132.242 18.2651 134.608 18.2651C135.877 18.2651 136.917 18.0622 137.582 17.8895V21.7878C136.689 22.1936 135.156 22.4526 133.166 22.4526C128.197 22.4526 125.512 20.5445 125.512 16.357V11.0989H121.238V7.60652V7.61078Z" fill="white"/>
<path d="M36.254 0.984314H30.4822V5.60352H36.254V0.984314Z" fill="white"/>
<path d="M72.3397 0.984314H66.2786V5.60352H72.3397V0.984314Z" fill="white"/>
<path d="M11.3537 22.0771V17.7083C11.8933 17.8033 12.6833 17.868 13.2877 17.868C14.7425 17.868 15.4721 16.983 15.4721 14.6389V0.0043335H21.5849V15.4635C21.5849 19.8668 19.6553 22.3707 14.0475 22.3707C13.1625 22.3707 12.0185 22.2757 11.3537 22.0857V22.0771Z" fill="#2B4393"/>
<path d="M7.36908 0H13.4819V15.839H7.36908V0Z" fill="#2D6753"/>
<path d="M6.10352e-05 9.38947L6.10352e-05 15.852H5.16748V9.38947H6.10352e-05Z" fill="#E49FC0"/>
<path d="M0 0.0172911L0 6.80359H5.16742V0.0172911H0Z" fill="#FABA69"/>
</svg>
