<svg width="151" height="24" viewBox="0 0 151 24" fill="none" xmlns="http://www.w3.org/2000/svg">
<path fill-rule="evenodd" clip-rule="evenodd" d="M41.9639 3.89192C41.9642 3.62973 41.8867 3.37335 41.7412 3.15522C41.5957 2.9371 41.3888 2.76704 41.1466 2.66657C40.9044 2.5661 40.6379 2.53974 40.3807 2.59082C40.1236 2.6419 39.8873 2.76813 39.7019 2.95353C39.5165 3.13892 39.3903 3.37516 39.3392 3.63232C39.2882 3.88949 39.3145 4.15603 39.415 4.39821C39.5155 4.64039 39.6855 4.84732 39.9036 4.99281C40.1218 5.13829 40.3781 5.2158 40.6403 5.21551C40.9911 5.21474 41.3273 5.07504 41.5754 4.82699C41.8234 4.57894 41.9631 4.24272 41.9639 3.89192Z" fill="#088D6C"/>
<path fill-rule="evenodd" clip-rule="evenodd" d="M54.9642 20.0368C54.9642 19.7747 54.8864 19.5185 54.7409 19.3006C54.5953 19.0827 54.3883 18.9129 54.1462 18.8126C53.9041 18.7123 53.6377 18.6861 53.3806 18.7372C53.1236 18.7883 52.8875 18.9145 52.7022 19.0998C52.5169 19.2851 52.3907 19.5212 52.3395 19.7783C52.2884 20.0353 52.3147 20.3017 52.415 20.5438C52.5152 20.786 52.6851 20.9929 52.903 21.1385C53.1209 21.2841 53.3771 21.3618 53.6391 21.3618C53.9904 21.3614 54.3272 21.2217 54.5756 20.9733C54.8241 20.7249 54.9638 20.3881 54.9642 20.0368Z" fill="#FFBC67"/>
<path fill-rule="evenodd" clip-rule="evenodd" d="M40.6404 5.21553C40.3782 5.21582 40.1218 5.13832 39.9037 4.99283C39.6855 4.84734 39.5155 4.64042 39.415 4.39824C39.3145 4.15606 39.2882 3.88952 39.3393 3.63235C39.3903 3.37518 39.5166 3.13895 39.702 2.95355C39.8874 2.76815 40.1236 2.64193 40.3808 2.59085C40.6379 2.53976 40.9045 2.56613 41.1467 2.6666C41.3888 2.76707 41.5958 2.93713 41.7412 3.15525C41.8867 3.37337 41.9642 3.62976 41.9639 3.89195C41.9636 4.24287 41.824 4.5793 41.5759 4.82744C41.3277 5.07558 40.9913 5.21515 40.6404 5.21553ZM40.6404 2.03748C40.1485 2.03748 39.6768 2.23286 39.329 2.58064C38.9813 2.92842 38.7859 3.40011 38.7859 3.89195C38.7859 3.89922 38.7859 3.90649 38.7859 3.91377V20.0368C38.7994 20.5194 39.0006 20.9778 39.3468 21.3144C39.693 21.651 40.1568 21.8393 40.6396 21.8393C41.1225 21.8393 41.5863 21.651 41.9325 21.3144C42.2786 20.9778 42.4799 20.5194 42.4934 20.0368V3.91377C42.4934 3.91377 42.4934 3.89922 42.4934 3.89195C42.4934 3.40036 42.2982 2.92889 41.9507 2.58115C41.6033 2.23341 41.1319 2.03786 40.6404 2.03748Z" fill="white"/>
<path fill-rule="evenodd" clip-rule="evenodd" d="M53.6391 21.3618C53.3771 21.3618 53.1209 21.2841 52.903 21.1385C52.6851 20.9929 52.5152 20.786 52.415 20.5439C52.3147 20.3017 52.2884 20.0353 52.3395 19.7783C52.3907 19.5213 52.5169 19.2852 52.7022 19.0998C52.8875 18.9145 53.1236 18.7883 53.3806 18.7372C53.6377 18.6861 53.9041 18.7123 54.1462 18.8126C54.3883 18.9129 54.5953 19.0827 54.7409 19.3006C54.8865 19.5185 54.9642 19.7747 54.9642 20.0368C54.9638 20.3881 54.8241 20.7249 54.5756 20.9733C54.3272 21.2217 53.9904 21.3614 53.6391 21.3618ZM53.6391 2.03748C53.3952 2.03672 53.1535 2.08413 52.9279 2.177C52.7023 2.26987 52.4973 2.40637 52.3246 2.57867C52.1519 2.75097 52.0149 2.95568 51.9215 3.18105C51.8281 3.40641 51.7801 3.648 51.7803 3.89196C51.7803 3.89923 51.7803 3.9065 51.7803 3.91378V10.1215H45.366C45.1182 10.1146 44.8715 10.1574 44.6405 10.2474C44.4096 10.3375 44.199 10.4729 44.0212 10.6457C43.8435 10.8186 43.7022 11.0253 43.6058 11.2536C43.5093 11.482 43.4596 11.7274 43.4596 11.9753C43.4596 12.2232 43.5093 12.4686 43.6058 12.6969C43.7022 12.9253 43.8435 13.132 44.0212 13.3048C44.199 13.4776 44.4096 13.6131 44.6405 13.7031C44.8715 13.7932 45.1182 13.836 45.366 13.829H51.7803V20.0368C51.7803 20.5282 51.9755 20.9996 52.323 21.3471C52.6705 21.6946 53.1419 21.8898 53.6333 21.8898C54.1248 21.8898 54.5961 21.6946 54.9436 21.3471C55.2911 20.9996 55.4863 20.5282 55.4863 20.0368V3.91378V3.89196C55.4867 3.40126 55.2925 2.93045 54.9462 2.58279C54.5999 2.23513 54.1298 2.03903 53.6391 2.03748Z" fill="white"/>
<path fill-rule="evenodd" clip-rule="evenodd" d="M73.3853 20.0833C73.6474 20.0833 73.9036 20.0056 74.1215 19.86C74.3394 19.7144 74.5092 19.5075 74.6095 19.2653C74.7098 19.0232 74.736 18.7568 74.6849 18.4998C74.6338 18.2427 74.5076 18.0066 74.3223 17.8213C74.137 17.636 73.9009 17.5098 73.6438 17.4587C73.3868 17.4076 73.1204 17.4338 72.8783 17.5341C72.6362 17.6344 72.4292 17.8042 72.2836 18.0221C72.138 18.24 72.0603 18.4962 72.0603 18.7583C72.0607 19.1096 72.2004 19.4464 72.4488 19.6948C72.6972 19.9432 73.034 20.0829 73.3853 20.0833Z" fill="#FF3939"/>
<path fill-rule="evenodd" clip-rule="evenodd" d="M79.9625 3.8454C79.7004 3.8454 79.4442 3.92311 79.2263 4.06871C79.0084 4.2143 78.8386 4.42125 78.7383 4.66337C78.638 4.90549 78.6118 5.17191 78.6629 5.42894C78.714 5.68597 78.8402 5.92207 79.0255 6.10738C79.2109 6.29269 79.447 6.41889 79.704 6.47002C79.961 6.52114 80.2274 6.4949 80.4696 6.39462C80.7117 6.29433 80.9186 6.12449 81.0642 5.90659C81.2098 5.68869 81.2875 5.43251 81.2875 5.17044C81.2872 4.81913 81.1474 4.48233 80.899 4.23392C80.6506 3.98551 80.3138 3.84578 79.9625 3.8454Z" fill="#FFBC67"/>
<path fill-rule="evenodd" clip-rule="evenodd" d="M73.3852 17.4332C73.6473 17.4332 73.9035 17.5109 74.1214 17.6565C74.3393 17.8021 74.5091 18.0091 74.6094 18.2512C74.7097 18.4933 74.7359 18.7597 74.6848 19.0168C74.6337 19.2738 74.5075 19.5099 74.3222 19.6952C74.1369 19.8805 73.9008 20.0067 73.6437 20.0579C73.3867 20.109 73.1203 20.0827 72.8782 19.9825C72.636 19.8822 72.4291 19.7123 72.2835 19.4944C72.1379 19.2765 72.0602 19.0203 72.0602 18.7583C72.0606 18.407 72.2003 18.0702 72.4487 17.8218C72.6971 17.5733 73.0339 17.4336 73.3852 17.4332ZM79.9624 6.49548C79.7004 6.49548 79.4442 6.41777 79.2263 6.27217C79.0084 6.12657 78.8385 5.91963 78.7382 5.67751C78.638 5.43539 78.6117 5.16897 78.6629 4.91194C78.714 4.6549 78.8402 4.41881 79.0255 4.23349C79.2108 4.04818 79.4469 3.92199 79.7039 3.87086C79.961 3.81973 80.2274 3.84597 80.4695 3.94626C80.7116 4.04655 80.9186 4.21639 81.0642 4.43429C81.2098 4.65219 81.2875 4.90837 81.2875 5.17044C81.2871 5.52174 81.1474 5.85855 80.8989 6.10696C80.6505 6.35537 80.3137 6.49509 79.9624 6.49548ZM85.3077 1.41931C82.9403 1.41117 80.6404 2.20821 78.7857 3.67959C78.5903 3.83354 78.4272 4.02447 78.3056 4.24148C78.184 4.45849 78.1063 4.69732 78.077 4.94435C78.0477 5.19138 78.0673 5.44176 78.1348 5.6812C78.2022 5.92064 78.3162 6.14445 78.4701 6.33985C78.6241 6.53525 78.815 6.69841 79.032 6.82002C79.249 6.94163 79.4879 7.01931 79.7349 7.04862C79.9819 7.07793 80.2323 7.05829 80.4717 6.99084C80.7112 6.92338 80.935 6.80942 81.1304 6.65547C82.3172 5.71025 83.7905 5.19728 85.3077 5.20098C86.2028 5.18785 87.0915 5.3528 87.9223 5.68625C88.753 6.01969 89.5092 6.51498 90.1468 7.14331C90.7845 7.77164 91.2908 8.52046 91.6364 9.34624C91.982 10.172 92.16 11.0583 92.16 11.9534C92.16 12.8486 91.982 13.7349 91.6364 14.5607C91.2908 15.3864 90.7845 16.1353 90.1468 16.7636C89.5092 17.3919 88.753 17.8872 87.9223 18.2207C87.0915 18.5541 86.2028 18.7191 85.3077 18.7059C84.3332 18.7059 82.8161 18.3568 81.4765 17.3736C79.8155 16.1649 78.8337 14.2697 78.5428 11.7462C78.0352 7.25909 75.8011 4.77336 74.0179 3.47887C71.922 1.96475 69.5425 1.41931 68.0138 1.41931C65.2171 1.41931 62.5349 2.5303 60.5573 4.50788C58.5797 6.48546 57.4688 9.16764 57.4688 11.9644C57.4688 14.7611 58.5797 17.4433 60.5573 19.4208C62.5349 21.3984 65.2171 22.5094 68.0138 22.5094C70.3811 22.5181 72.6809 21.7215 74.5357 20.2506C74.7312 20.0965 74.8945 19.9055 75.0161 19.6884C75.1378 19.4712 75.2155 19.2323 75.2448 18.9851C75.2741 18.7379 75.2544 18.4874 75.1869 18.2478C75.1194 18.0083 75.0054 17.7844 74.8514 17.5889C74.6973 17.3934 74.5063 17.2301 74.2891 17.1085C74.072 16.9868 73.833 16.9091 73.5859 16.8798C73.3387 16.8505 73.0882 16.8701 72.8486 16.9377C72.6091 17.0052 72.3851 17.1192 72.1896 17.2732C71.0024 18.2156 69.5296 18.7256 68.0138 18.719C67.1187 18.7321 66.2299 18.5672 65.3992 18.2337C64.5684 17.9003 63.8122 17.405 63.1746 16.7767C62.537 16.1484 62.0307 15.3995 61.6851 14.5737C61.3395 13.748 61.1615 12.8617 61.1615 11.9665C61.1615 11.0714 61.3395 10.1851 61.6851 9.35933C62.0307 8.53355 62.537 7.78473 63.1746 7.1564C63.8122 6.52807 64.5684 6.03278 65.3992 5.69934C66.2299 5.36589 67.1187 5.20094 68.0138 5.21407C68.9054 5.21407 70.4297 5.56606 71.7955 6.55366C73.4929 7.78561 74.4979 9.67935 74.7815 12.1811C75.2906 16.6798 77.4854 19.1626 79.2381 20.4411C80.7934 21.603 82.6429 22.306 84.5772 22.4706C86.5115 22.6352 88.4533 22.2548 90.1825 21.3725C91.9117 20.4902 93.3593 19.1412 94.3612 17.4784C95.3631 15.8156 95.8793 13.9055 95.8513 11.9644C95.8486 9.16872 94.7369 6.48833 92.7602 4.51137C90.7835 2.53442 88.1033 1.42239 85.3077 1.41931Z" fill="white"/>
<path fill-rule="evenodd" clip-rule="evenodd" d="M98.2934 19.9771C98.2852 20.154 98.3126 20.3307 98.3739 20.4968C98.4352 20.6629 98.5292 20.8151 98.6503 20.9442C98.7714 21.0734 98.9171 21.177 99.0789 21.2489C99.2407 21.3208 99.4153 21.3596 99.5923 21.3629C99.7693 21.3662 99.9452 21.334 100.11 21.2682C100.274 21.2024 100.423 21.1043 100.549 20.9797C100.675 20.8551 100.775 20.7066 100.842 20.5429C100.91 20.3792 100.944 20.2036 100.942 20.0266V19.9815C100.941 19.642 100.806 19.3167 100.566 19.0767C100.326 18.8368 100 18.7019 99.6606 18.7015C99.3127 18.6986 98.977 18.8293 98.7226 19.0667C98.4682 19.304 98.3146 19.6299 98.2934 19.9771Z" fill="#088D6C"/>
<path fill-rule="evenodd" clip-rule="evenodd" d="M100.942 20.0266C100.939 20.2004 100.901 20.3719 100.832 20.5312C100.762 20.6906 100.662 20.8347 100.537 20.9553C100.412 21.0759 100.264 21.1707 100.102 21.2342C99.9403 21.2977 99.7675 21.3287 99.5937 21.3255C99.4199 21.3222 99.2484 21.2848 99.0891 21.2153C98.9297 21.1457 98.7856 21.0455 98.665 20.9203C98.5444 20.7951 98.4497 20.6474 98.3861 20.4856C98.3226 20.3237 98.2916 20.151 98.2948 19.9772C98.3161 19.6299 98.4697 19.304 98.7241 19.0667C98.9784 18.8294 99.3142 18.6987 99.6621 18.7016C100.001 18.702 100.327 18.8369 100.567 19.0769C100.807 19.3168 100.942 19.6422 100.942 19.9815V20.0266ZM108.121 18.1736H101.442V3.90215C101.442 3.4107 101.247 2.93938 100.9 2.59187C100.552 2.24436 100.081 2.04913 99.5893 2.04913C99.0979 2.04913 98.6266 2.24436 98.2791 2.59187C97.9316 2.93938 97.7363 3.4107 97.7363 3.90215V20.0266C97.7363 20.5181 97.9316 20.9894 98.2791 21.3369C98.6266 21.6844 99.0979 21.8796 99.5893 21.8796H108.069C108.312 21.8798 108.554 21.832 108.779 21.739C109.004 21.646 109.208 21.5095 109.38 21.3374C109.552 21.1653 109.689 20.961 109.782 20.7361C109.876 20.5112 109.923 20.2701 109.923 20.0266V19.9815C109.923 19.744 109.877 19.5088 109.786 19.2893C109.695 19.0699 109.561 18.8705 109.393 18.7026C109.225 18.5347 109.026 18.4016 108.806 18.3108C108.587 18.22 108.352 18.1734 108.114 18.1736" fill="white"/>
<path fill-rule="evenodd" clip-rule="evenodd" d="M119.996 3.89193C119.996 4.154 120.074 4.41019 120.219 4.62809C120.365 4.84599 120.572 5.01582 120.814 5.11611C121.056 5.2164 121.322 5.24264 121.579 5.19151C121.836 5.14039 122.073 5.01419 122.258 4.82888C122.443 4.64357 122.569 4.40747 122.62 4.15044C122.672 3.8934 122.645 3.62698 122.545 3.38486C122.445 3.14274 122.275 2.9358 122.057 2.7902C121.839 2.64461 121.583 2.56689 121.321 2.56689C120.969 2.56689 120.632 2.7065 120.384 2.95499C120.135 3.20348 119.996 3.54051 119.996 3.89193Z" fill="#FF3939"/>
<path fill-rule="evenodd" clip-rule="evenodd" d="M121.322 5.21552C121.06 5.2158 120.804 5.1383 120.586 4.99281C120.367 4.84733 120.197 4.6404 120.097 4.39822C119.996 4.15604 119.97 3.8895 120.021 3.63233C120.072 3.37516 120.199 3.13893 120.384 2.95353C120.569 2.76814 120.806 2.64191 121.063 2.59083C121.32 2.53975 121.586 2.56611 121.829 2.66658C122.071 2.76705 122.278 2.93711 122.423 3.15523C122.569 3.37336 122.646 3.62974 122.646 3.89193C122.646 4.24285 122.506 4.57928 122.258 4.82742C122.01 5.07556 121.673 5.21513 121.322 5.21552ZM131.165 19.1975L123.05 3.20978C122.914 2.86292 122.675 2.56538 122.367 2.35609C122.059 2.1468 121.694 2.0355 121.321 2.03675C120.948 2.03801 120.585 2.15177 120.278 2.36314C119.971 2.5745 119.734 2.87364 119.6 3.22141L111.48 19.199C111.347 19.4581 111.277 19.7454 111.278 20.0368C111.277 20.4535 111.417 20.8582 111.674 21.1857C111.932 21.5131 112.293 21.744 112.698 21.8411C113.103 21.9381 113.529 21.8957 113.907 21.7205C114.285 21.5454 114.593 21.2479 114.781 20.876L121.327 8.00377L124.068 13.4057H120.937C120.689 13.3988 120.442 13.4416 120.211 13.5317C119.98 13.6217 119.77 13.7571 119.592 13.9299C119.414 14.1028 119.273 14.3095 119.177 14.5378C119.08 14.7662 119.03 15.0116 119.03 15.2595C119.03 15.5074 119.08 15.7528 119.177 15.9811C119.273 16.2095 119.414 16.4162 119.592 16.589C119.77 16.7619 119.98 16.8973 120.211 16.9873C120.442 17.0774 120.689 17.1202 120.937 17.1132H125.946L127.86 20.8804C128.049 21.2517 128.357 21.5488 128.735 21.7236C129.113 21.8983 129.539 21.9406 129.944 21.8437C130.349 21.7467 130.71 21.5161 130.968 21.189C131.225 20.862 131.366 20.4576 131.366 20.0411C131.366 19.7496 131.296 19.4623 131.162 19.2033L131.165 19.1975Z" fill="white"/>
<path fill-rule="evenodd" clip-rule="evenodd" d="M135.914 3.89192C135.914 3.62979 135.837 3.37347 135.691 3.15538C135.546 2.93728 135.339 2.76722 135.097 2.66671C134.855 2.5662 134.588 2.53975 134.331 2.59071C134.074 2.64168 133.838 2.76776 133.652 2.95301C133.467 3.13826 133.34 3.37436 133.289 3.63143C133.238 3.8885 133.264 4.155 133.364 4.3972C133.465 4.63941 133.634 4.84644 133.852 4.9921C134.07 5.13776 134.327 5.21551 134.589 5.21551C134.94 5.21513 135.276 5.0756 135.525 4.8275C135.773 4.57941 135.913 4.24298 135.914 3.89192Z" fill="#088D6C"/>
<path fill-rule="evenodd" clip-rule="evenodd" d="M135.914 20.0368C135.914 19.7747 135.836 19.5185 135.69 19.3006C135.545 19.0827 135.338 18.9129 135.096 18.8126C134.854 18.7123 134.587 18.6861 134.33 18.7372C134.073 18.7883 133.837 18.9145 133.652 19.0998C133.466 19.2851 133.34 19.5212 133.289 19.7783C133.238 20.0353 133.264 20.3017 133.365 20.5438C133.465 20.786 133.635 20.9929 133.853 21.1385C134.07 21.2841 134.327 21.3618 134.589 21.3618C134.94 21.3614 135.277 21.2217 135.525 20.9733C135.774 20.7249 135.913 20.3881 135.914 20.0368Z" fill="#FFBC67"/>
<path fill-rule="evenodd" clip-rule="evenodd" d="M143.559 18.1837H136.442V5.76678H142.754C145.236 5.86132 145.179 9.63572 142.667 9.6779H139.313C139.249 9.67762 139.185 9.68102 139.121 9.68808C138.665 9.7339 138.243 9.94743 137.936 10.2872C137.629 10.6269 137.459 11.0687 137.46 11.5266C137.46 11.5804 137.46 11.6327 137.46 11.6836C137.461 11.6933 137.461 11.703 137.46 11.7127C137.506 12.1697 137.72 12.5933 138.061 12.9013C138.402 13.2093 138.845 13.3797 139.304 13.3796H142.686C143.323 13.4087 144.671 13.1498 145.541 14.4399C145.784 14.8007 145.924 15.2205 145.947 15.6547C145.97 16.0889 145.874 16.5212 145.671 16.9054C145.467 17.2896 145.163 17.6115 144.791 17.8366C144.419 18.0617 143.993 18.1817 143.559 18.1837ZM134.589 5.21552C134.327 5.21552 134.07 5.13777 133.852 4.99211C133.635 4.84645 133.465 4.63942 133.364 4.39722C133.264 4.15501 133.238 3.88852 133.289 3.63145C133.341 3.37437 133.467 3.13828 133.652 2.95303C133.838 2.76777 134.074 2.64169 134.331 2.59073C134.588 2.53977 134.855 2.56621 135.097 2.66673C135.339 2.76724 135.546 2.9373 135.691 3.15539C135.837 3.37348 135.914 3.62981 135.914 3.89194C135.913 4.24311 135.774 4.57976 135.525 4.82794C135.277 5.07612 134.94 5.21552 134.589 5.21552ZM134.589 21.3604C134.327 21.3604 134.07 21.2826 133.853 21.137C133.635 20.9914 133.465 20.7845 133.365 20.5424C133.264 20.3003 133.238 20.0338 133.289 19.7768C133.34 19.5198 133.466 19.2837 133.652 19.0984C133.837 18.9131 134.073 18.7869 134.33 18.7357C134.587 18.6846 134.854 18.7108 135.096 18.8111C135.338 18.9114 135.545 19.0813 135.69 19.2992C135.836 19.5171 135.914 19.7732 135.914 20.0353C135.913 20.3866 135.774 20.7234 135.525 20.9718C135.277 21.2202 134.94 21.36 134.589 21.3604ZM147.289 10.9477C147.304 10.9258 147.32 10.904 147.334 10.8808C149.874 7.12381 147.167 2.03601 142.634 2.03601H134.589H134.557H134.483C134.031 2.06103 133.603 2.25082 133.282 2.56948C132.96 2.88814 132.766 3.31359 132.737 3.7654C132.737 3.7974 132.737 3.8294 132.737 3.86139C132.737 3.86867 132.737 3.87594 132.737 3.88467V20.0368C132.737 20.0891 132.737 20.1415 132.737 20.1924C132.737 20.2099 132.737 20.2259 132.737 20.2419C132.737 20.2579 132.744 20.3117 132.75 20.3451C132.756 20.3786 132.758 20.3829 132.76 20.4004C132.763 20.4178 132.774 20.4629 132.782 20.4949C132.791 20.5269 132.792 20.5313 132.797 20.5502C132.801 20.5691 132.797 20.5764 132.807 20.588C132.817 20.5997 132.817 20.6127 132.822 20.6258C132.826 20.6389 132.843 20.6898 132.856 20.7218L132.883 20.7858C132.897 20.8178 132.912 20.8484 132.928 20.8804L132.948 20.9211L132.96 20.94L132.999 21.0069L133.041 21.0738C133.056 21.0942 133.072 21.1145 133.086 21.1364L133.134 21.1989C133.15 21.2193 133.168 21.2382 133.184 21.2571L133.236 21.3153L133.291 21.3705L133.348 21.4229L133.408 21.4738L133.469 21.5218C133.489 21.5378 133.511 21.5523 133.533 21.5669L133.598 21.6105L133.665 21.6483L133.734 21.6876L133.805 21.7211L133.856 21.7443H133.875L133.984 21.7836L134.036 21.8025C134.091 21.82 134.147 21.8345 134.203 21.8462C134.326 21.8713 134.452 21.884 134.577 21.884H143.559C149.352 21.884 151.886 14.4966 147.291 10.9418" fill="white"/>
<path fill-rule="evenodd" clip-rule="evenodd" d="M9.56374 10.4779C9.5274 10.476 9.49099 10.476 9.45465 10.4779C9.12254 10.4771 8.80221 10.6009 8.55697 10.8249C8.31174 11.0488 8.15943 11.3566 8.13016 11.6875C8.10089 12.0183 8.19679 12.3481 8.39889 12.6116C8.601 12.8751 8.89461 13.0533 9.2217 13.1108C9.54879 13.1683 9.88557 13.1011 10.1655 12.9223C10.4454 12.7436 10.648 12.4663 10.7334 12.1454C10.8188 11.8244 10.7807 11.4831 10.6266 11.1889C10.4725 10.8947 10.2136 10.669 9.90118 10.5564C9.7924 10.5174 9.67893 10.4929 9.56374 10.4837" fill="#FFBC67"/>
<path fill-rule="evenodd" clip-rule="evenodd" d="M9.45465 13.1207C9.27705 13.1266 9.10008 13.0967 8.93426 13.0328C8.76845 12.9689 8.61718 12.8723 8.48947 12.7487C8.36175 12.6252 8.26019 12.4772 8.19082 12.3136C8.12146 12.15 8.08572 11.9741 8.08572 11.7964C8.08572 11.6187 8.12146 11.4428 8.19082 11.2792C8.26019 11.1156 8.36175 10.9676 8.48947 10.844C8.61718 10.7205 8.76845 10.6239 8.93426 10.56C9.10008 10.4961 9.27705 10.4662 9.45465 10.4721C9.49099 10.4702 9.5274 10.4702 9.56374 10.4721C9.67896 10.4812 9.79245 10.5056 9.90118 10.5448C10.1993 10.6467 10.4512 10.8515 10.6118 11.1225C10.7724 11.3935 10.831 11.7129 10.7772 12.0233C10.7234 12.3337 10.5607 12.6147 10.3183 12.8158C10.0758 13.017 9.76963 13.1251 9.45465 13.1207ZM9.6001 9.9499C8.2707 9.65901 6.04533 9.04812 6.03951 7.70999C6.03879 7.69594 6.03879 7.68186 6.03951 7.66781C6.07588 6.12023 6.67076 5.27081 9.09394 5.27081C10.2386 5.27081 11.3615 5.41626 13.5752 6.56531C13.7921 6.68462 14.0307 6.75926 14.2769 6.78483C14.5232 6.81039 14.772 6.78636 15.0088 6.71416C15.2456 6.64196 15.4655 6.52304 15.6556 6.36444C15.8456 6.20583 16.002 6.01076 16.1154 5.79072C16.2288 5.57068 16.297 5.33015 16.3159 5.08333C16.3348 4.83651 16.3041 4.5884 16.2255 4.35365C16.147 4.1189 16.0222 3.90227 15.8585 3.71655C15.6948 3.53083 15.4956 3.37979 15.2726 3.27235C14.4873 2.85914 13.6742 2.50095 12.8392 2.20039C8.47578 0.677537 2.49056 1.55314 2.3422 7.582C2.3422 7.62709 2.3422 7.67072 2.3422 7.71435C2.34087 8.20171 2.40994 8.6867 2.54729 9.1543C4.23158 14.8152 13.4952 12.8152 13.504 16.3293C13.504 17.5176 12.6313 18.6812 10.0292 18.6812C7.89253 18.6812 6.27369 17.999 4.55303 16.8704C4.14175 16.6179 3.64821 16.5358 3.17735 16.6416C2.7065 16.7474 2.2955 17.0327 2.03175 17.4368C1.76801 17.841 1.67233 18.3321 1.76508 18.8057C1.85782 19.2793 2.13167 19.698 2.52838 19.9728C4.88174 21.5145 7.17402 22.3858 10.0306 22.3858C14.6472 22.3858 17.2114 19.6295 17.2114 16.3278C17.2114 12.5025 13.7832 10.8924 10.0844 10.0561C9.93195 10.0016 9.77308 9.96685 9.61174 9.95281" fill="white"/>
<path fill-rule="evenodd" clip-rule="evenodd" d="M22.9189 4.72101C22.6579 4.72072 22.4027 4.79785 22.1856 4.94263C21.9684 5.08741 21.7991 5.29335 21.699 5.53438C21.599 5.77541 21.5726 6.04071 21.6234 6.29671C21.6741 6.55271 21.7996 6.7879 21.9841 6.97255C22.1685 7.15719 22.4036 7.28298 22.6595 7.334C22.9155 7.38502 23.1808 7.35898 23.4219 7.25917C23.6631 7.15937 23.8692 6.99028 24.0142 6.7733C24.1592 6.55633 24.2366 6.30121 24.2366 6.04023C24.2363 5.69072 24.0974 5.35562 23.8503 5.10834C23.6033 4.86106 23.2684 4.72178 22.9189 4.72101Z" fill="#FF3939"/>
<path fill-rule="evenodd" clip-rule="evenodd" d="M22.9188 19.1947C23.1798 19.1947 23.4348 19.1173 23.6518 18.9723C23.8687 18.8274 24.0378 18.6213 24.1376 18.3803C24.2375 18.1392 24.2636 17.874 24.2127 17.6181C24.1618 17.3622 24.0362 17.1271 23.8517 16.9426C23.6672 16.7581 23.4321 16.6325 23.1762 16.5816C22.9203 16.5307 22.655 16.5568 22.414 16.6566C22.1729 16.7565 21.9669 16.9256 21.8219 17.1425C21.677 17.3595 21.5996 17.6145 21.5996 17.8754C21.5996 18.2253 21.7386 18.5609 21.986 18.8083C22.2334 19.0557 22.569 19.1947 22.9188 19.1947Z" fill="#088D6C"/>
<path fill-rule="evenodd" clip-rule="evenodd" d="M21.5997 17.8754C21.5997 17.6145 21.677 17.3594 21.822 17.1425C21.967 16.9255 22.173 16.7564 22.4141 16.6566C22.6551 16.5568 22.9204 16.5306 23.1763 16.5815C23.4322 16.6324 23.6672 16.7581 23.8517 16.9426C24.0362 17.1271 24.1619 17.3621 24.2128 17.618C24.2637 17.8739 24.2375 18.1392 24.1377 18.3802C24.0378 18.6213 23.8688 18.8273 23.6518 18.9723C23.4349 19.1173 23.1798 19.1946 22.9189 19.1946C22.5691 19.1942 22.2338 19.0551 21.9865 18.8078C21.7392 18.5605 21.6001 18.2252 21.5997 17.8754ZM24.2367 6.04022C24.237 6.30126 24.1598 6.55652 24.0149 6.77369C23.8701 6.99086 23.6641 7.16017 23.423 7.2602C23.1818 7.36023 22.9165 7.38648 22.6604 7.33562C22.4044 7.28476 22.1692 7.15909 21.9846 6.97451C21.8 6.78992 21.6744 6.55473 21.6235 6.29869C21.5726 6.04265 21.5989 5.77728 21.6989 5.53616C21.7989 5.29505 21.9683 5.08903 22.1854 4.94418C22.4026 4.79933 22.6579 4.72217 22.9189 4.72246C23.2683 4.72284 23.6032 4.8618 23.8503 5.10885C24.0973 5.35589 24.2363 5.69085 24.2367 6.04022ZM22.3211 11.9644C22.3194 10.6846 22.6945 9.43258 23.3997 8.36458C24.1049 7.29658 25.1088 6.45981 26.2864 5.95865C27.464 5.45749 28.7631 5.31412 30.0216 5.54641C31.2802 5.7787 32.4425 6.37638 33.3636 7.2649L33.4116 7.30563C33.4359 7.32946 33.4617 7.3518 33.4887 7.37253C33.5105 7.39144 33.5338 7.40744 33.557 7.4249L33.6327 7.47871L33.7098 7.52526C33.7359 7.5398 33.7607 7.5558 33.7868 7.56889C33.813 7.58198 33.8407 7.59507 33.8683 7.60816C33.8943 7.62175 33.921 7.63389 33.9483 7.64452C33.9759 7.65616 34.0036 7.66489 34.0312 7.67507L34.1185 7.70416C34.1462 7.71297 34.1743 7.72025 34.2028 7.72598C34.2319 7.72598 34.261 7.74197 34.2915 7.74779L34.3875 7.76234L34.469 7.77397C34.5199 7.77397 34.5723 7.78125 34.6246 7.78125H34.6494H34.7279C34.7628 7.78125 34.7977 7.78125 34.8326 7.78125C34.8675 7.78125 34.9199 7.76961 34.9635 7.76234L35.0144 7.75361C35.0595 7.74488 35.1046 7.73325 35.1482 7.72016L35.1919 7.70852C35.2355 7.69543 35.2777 7.67943 35.3213 7.66343C35.3359 7.65616 35.3504 7.65325 35.365 7.64598C35.4086 7.62853 35.4522 7.60671 35.4944 7.58489L35.5322 7.56744C35.5846 7.53835 35.637 7.50635 35.6879 7.47289L35.73 7.43944C35.7669 7.41423 35.8018 7.38805 35.8348 7.3609L35.8799 7.32017C35.9118 7.29108 35.9439 7.26345 35.9729 7.2329L35.9846 7.22127C35.9977 7.20818 36.0078 7.19363 36.0209 7.18054L36.0951 7.09473L36.1431 7.03073L36.2013 6.94928L36.2449 6.8751C36.2609 6.84746 36.2769 6.82128 36.2915 6.79365C36.306 6.76601 36.3177 6.73983 36.3307 6.71365C36.3438 6.68747 36.3555 6.65693 36.3671 6.62784C36.3787 6.59875 36.3875 6.57402 36.3977 6.54639C36.4078 6.51875 36.418 6.48675 36.4267 6.45621C36.4355 6.42566 36.4413 6.40094 36.4486 6.3733C36.4558 6.34567 36.4631 6.31221 36.4689 6.28167C36.4747 6.25112 36.4791 6.22058 36.4835 6.19004C36.4878 6.15949 36.4835 6.13186 36.4936 6.10277C36.5038 6.07368 36.4936 6.03441 36.4936 5.9995C36.4936 5.96459 36.4936 5.95732 36.4936 5.93695C36.4936 5.91659 36.4936 5.92532 36.4936 5.9195C36.4936 5.88459 36.4936 5.84969 36.4936 5.81478C36.4936 5.77987 36.4936 5.76096 36.4936 5.73478C36.4936 5.7086 36.4849 5.67369 36.4806 5.64315C36.4762 5.6126 36.4718 5.58351 36.4646 5.55297C36.4573 5.52242 36.4515 5.50352 36.4457 5.47734C36.4398 5.45115 36.4296 5.41188 36.4195 5.37843L36.3918 5.30425C36.3802 5.27225 36.37 5.24171 36.3569 5.21116C36.3438 5.18062 36.3293 5.15298 36.3162 5.12389C36.3031 5.09481 36.2929 5.07444 36.2798 5.04972C36.2667 5.02499 36.2449 4.99299 36.2275 4.96536L36.1853 4.89554C36.1693 4.87081 36.1504 4.849 36.1315 4.82427C36.1126 4.79954 36.0951 4.77336 36.0748 4.75009C36.0544 4.72682 36.0398 4.71082 36.0224 4.69191C36.0049 4.673 35.9744 4.6381 35.9482 4.61337L35.9366 4.60173C34.0337 2.76285 31.4907 1.73542 28.8445 1.73639C26.1319 1.73639 23.5303 2.81398 21.6122 4.73209C19.6941 6.65021 18.6165 9.25173 18.6165 11.9644C18.6165 14.677 19.6941 17.2785 21.6122 19.1966C23.5303 21.1147 26.1319 22.1923 28.8445 22.1923C31.4432 22.195 33.9452 21.2067 35.8406 19.4288L35.8609 19.407C35.8842 19.3852 35.906 19.3619 35.9279 19.3386C35.9497 19.3153 35.9686 19.295 35.9875 19.2717C36.0064 19.2484 36.0238 19.2266 36.0413 19.2034L36.0995 19.1263C36.114 19.1044 36.1286 19.0812 36.1417 19.0579C36.1548 19.0346 36.178 19.0012 36.194 18.9735C36.21 18.9459 36.2188 18.9226 36.2318 18.8979C36.2449 18.8732 36.2595 18.8426 36.2726 18.8135L36.306 18.7263C36.3162 18.7001 36.3264 18.6739 36.3351 18.6463C36.3438 18.6186 36.3526 18.5837 36.3613 18.5517C36.37 18.5197 36.3758 18.4994 36.3817 18.4717C36.3875 18.4441 36.3933 18.4107 36.3991 18.3787L36.4122 18.2914C36.4122 18.2623 36.4122 18.2332 36.4122 18.2041C36.4122 18.175 36.4122 18.1387 36.4122 18.1052C36.4122 18.0965 36.4122 18.0863 36.4122 18.0761C36.4122 18.0659 36.4122 18.0398 36.4122 18.0208V17.9219C36.4122 17.8929 36.4122 17.8638 36.402 17.8347C36.3918 17.8056 36.3933 17.7736 36.3875 17.743C36.3817 17.7125 36.3758 17.6834 36.3686 17.6529C36.3613 17.6223 36.3555 17.5961 36.3467 17.5685C36.338 17.5409 36.3293 17.5074 36.3191 17.4783L36.2886 17.3969C36.2769 17.3678 36.2653 17.3387 36.2522 17.3111C36.2391 17.2834 36.2275 17.2572 36.2144 17.2311L36.1693 17.1496C36.1548 17.1249 36.1402 17.1002 36.1242 17.0754C36.1082 17.0507 36.0878 17.0216 36.0689 16.9954C36.05 16.9693 36.0355 16.9503 36.018 16.9285C36.0006 16.9067 35.9744 16.8747 35.9511 16.8485C35.9279 16.8224 35.9293 16.8209 35.9177 16.8093C35.9117 16.8026 35.9054 16.7963 35.8988 16.7904L35.8144 16.7104C35.797 16.6928 35.7785 16.6762 35.7591 16.6609C35.7313 16.6365 35.7022 16.6137 35.6719 16.5925C35.6515 16.5765 35.6326 16.5605 35.6108 16.546C35.589 16.5315 35.5468 16.5053 35.5133 16.4864L35.4537 16.45C35.4028 16.4224 35.349 16.3962 35.2951 16.3729C35.1239 16.2997 34.9424 16.2536 34.757 16.2362H34.7337C34.6814 16.2362 34.6261 16.2275 34.5723 16.2275H34.5519C34.4995 16.2275 34.4457 16.2275 34.3934 16.2275L34.3163 16.2391L34.2174 16.2536L34.133 16.274C34.1025 16.2813 34.0734 16.2871 34.0443 16.2958L33.9614 16.3249C33.9327 16.3336 33.9046 16.3438 33.877 16.3555C33.8494 16.3656 33.8232 16.3787 33.797 16.3904C33.7708 16.402 33.7418 16.4151 33.7156 16.4296C33.6894 16.4442 33.6647 16.4573 33.6399 16.4718C33.6152 16.4864 33.5876 16.5024 33.5629 16.5198C33.5381 16.5373 33.5134 16.5533 33.4887 16.5707C33.4639 16.5882 33.4421 16.6042 33.4189 16.6231C33.3956 16.642 33.3694 16.6638 33.3461 16.6856L33.304 16.7205C32.0975 17.8578 30.501 18.4892 28.843 18.4848C27.9712 18.4869 27.1079 18.3127 26.3049 17.9729C25.1231 17.4748 24.1146 16.6389 23.4059 15.5701C22.6972 14.5012 22.3198 13.2468 22.3211 11.9644Z" fill="white"/>
</svg>
