<svg width="151" height="24" viewBox="0 0 151 24" fill="none" xmlns="http://www.w3.org/2000/svg">
<path fill-rule="evenodd" clip-rule="evenodd" d="M41.9856 3.89192C41.9859 3.62973 41.9084 3.37335 41.7629 3.15522C41.6174 2.9371 41.4105 2.76704 41.1683 2.66657C40.9262 2.5661 40.6596 2.53974 40.4025 2.59082C40.1453 2.6419 39.9091 2.76813 39.7237 2.95353C39.5383 3.13892 39.412 3.37516 39.361 3.63232C39.3099 3.88949 39.3362 4.15603 39.4367 4.39821C39.5372 4.64039 39.7072 4.84732 39.9254 4.99281C40.1435 5.13829 40.3999 5.2158 40.6621 5.21551C41.0129 5.21474 41.3491 5.07504 41.5971 4.82699C41.8452 4.57894 41.9849 4.24272 41.9856 3.89192Z" fill="#088D6C"/>
<path fill-rule="evenodd" clip-rule="evenodd" d="M54.9859 20.0368C54.9859 19.7747 54.9082 19.5185 54.7626 19.3006C54.617 19.0827 54.41 18.9129 54.1679 18.8126C53.9258 18.7123 53.6594 18.6861 53.4024 18.7372C53.1453 18.7883 52.9092 18.9145 52.7239 19.0998C52.5386 19.2851 52.4124 19.5212 52.3613 19.7783C52.3101 20.0353 52.3364 20.3017 52.4367 20.5438C52.537 20.786 52.7068 20.9929 52.9247 21.1385C53.1426 21.2841 53.3988 21.3618 53.6609 21.3618C54.0122 21.3614 54.349 21.2217 54.5974 20.9733C54.8458 20.7249 54.9855 20.3881 54.9859 20.0368Z" fill="#FFBC67"/>
<path fill-rule="evenodd" clip-rule="evenodd" d="M40.6621 5.21553C40.3999 5.21582 40.1435 5.13832 39.9254 4.99283C39.7073 4.84734 39.5372 4.64042 39.4367 4.39824C39.3363 4.15606 39.3099 3.88952 39.361 3.63235C39.4121 3.37518 39.5383 3.13895 39.7237 2.95355C39.9091 2.76815 40.1453 2.64193 40.4025 2.59085C40.6597 2.53976 40.9262 2.56613 41.1684 2.6666C41.4106 2.76707 41.6175 2.93713 41.763 3.15525C41.9085 3.37337 41.986 3.62976 41.9857 3.89195C41.9853 4.24287 41.8457 4.5793 41.5976 4.82744C41.3494 5.07558 41.013 5.21515 40.6621 5.21553ZM40.6621 2.03748C40.1703 2.03748 39.6986 2.23286 39.3508 2.58064C39.003 2.92842 38.8076 3.40011 38.8076 3.89195C38.8076 3.89922 38.8076 3.90649 38.8076 3.91377V20.0368C38.8211 20.5194 39.0224 20.9778 39.3685 21.3144C39.7147 21.651 40.1785 21.8393 40.6614 21.8393C41.1442 21.8393 41.608 21.651 41.9542 21.3144C42.3004 20.9778 42.5016 20.5194 42.5151 20.0368V3.91377C42.5151 3.91377 42.5151 3.89922 42.5151 3.89195C42.5151 3.40036 42.3199 2.92889 41.9725 2.58115C41.625 2.23341 41.1537 2.03786 40.6621 2.03748Z" fill="#181B56"/>
<path fill-rule="evenodd" clip-rule="evenodd" d="M53.6609 21.3618C53.3988 21.3618 53.1426 21.2841 52.9247 21.1385C52.7068 20.9929 52.537 20.786 52.4367 20.5439C52.3364 20.3017 52.3101 20.0353 52.3613 19.7783C52.4124 19.5213 52.5386 19.2852 52.7239 19.0998C52.9092 18.9145 53.1453 18.7883 53.4024 18.7372C53.6594 18.6861 53.9258 18.7123 54.1679 18.8126C54.41 18.9129 54.617 19.0827 54.7626 19.3006C54.9082 19.5185 54.9859 19.7747 54.9859 20.0368C54.9855 20.3881 54.8458 20.7249 54.5974 20.9733C54.349 21.2217 54.0122 21.3614 53.6609 21.3618ZM53.6609 2.03748C53.4169 2.03672 53.1752 2.08413 52.9496 2.177C52.724 2.26987 52.519 2.40637 52.3463 2.57867C52.1736 2.75097 52.0366 2.95568 51.9432 3.18105C51.8498 3.40641 51.8018 3.648 51.802 3.89196C51.802 3.89923 51.802 3.9065 51.802 3.91378V10.1215H45.3877C45.1399 10.1146 44.8932 10.1574 44.6623 10.2474C44.4313 10.3375 44.2207 10.4729 44.043 10.6457C43.8652 10.8186 43.724 11.0253 43.6275 11.2536C43.531 11.482 43.4813 11.7274 43.4813 11.9753C43.4813 12.2232 43.531 12.4686 43.6275 12.6969C43.724 12.9253 43.8652 13.132 44.043 13.3048C44.2207 13.4776 44.4313 13.6131 44.6623 13.7031C44.8932 13.7932 45.1399 13.836 45.3877 13.829H51.802V20.0368C51.802 20.5282 51.9972 20.9996 52.3448 21.3471C52.6923 21.6946 53.1636 21.8898 53.655 21.8898C54.1465 21.8898 54.6178 21.6946 54.9653 21.3471C55.3128 20.9996 55.5081 20.5282 55.5081 20.0368V3.91378V3.89196C55.5084 3.40126 55.3142 2.93045 54.9679 2.58279C54.6216 2.23513 54.1515 2.03903 53.6609 2.03748Z" fill="#181B56"/>
<path fill-rule="evenodd" clip-rule="evenodd" d="M73.4071 20.0833C73.6691 20.0833 73.9253 20.0056 74.1432 19.86C74.3611 19.7144 74.531 19.5075 74.6312 19.2653C74.7315 19.0232 74.7578 18.7568 74.7066 18.4998C74.6555 18.2427 74.5293 18.0066 74.344 17.8213C74.1587 17.636 73.9226 17.5098 73.6656 17.4587C73.4085 17.4076 73.1421 17.4338 72.9 17.5341C72.6579 17.6344 72.4509 17.8042 72.3053 18.0221C72.1597 18.24 72.082 18.4962 72.082 18.7583C72.0824 19.1096 72.2221 19.4464 72.4706 19.6948C72.719 19.9432 73.0558 20.0829 73.4071 20.0833Z" fill="#FF3939"/>
<path fill-rule="evenodd" clip-rule="evenodd" d="M79.9842 3.8454C79.7222 3.8454 79.466 3.92311 79.2481 4.06871C79.0302 4.2143 78.8603 4.42125 78.76 4.66337C78.6597 4.90549 78.6335 5.17191 78.6846 5.42894C78.7358 5.68597 78.862 5.92207 79.0473 6.10738C79.2326 6.29269 79.4687 6.41889 79.7257 6.47002C79.9828 6.52114 80.2492 6.4949 80.4913 6.39462C80.7334 6.29433 80.9404 6.12449 81.086 5.90659C81.2316 5.68869 81.3093 5.43251 81.3093 5.17044C81.3089 4.81913 81.1692 4.48233 80.9207 4.23392C80.6723 3.98551 80.3355 3.84578 79.9842 3.8454Z" fill="#FFBC67"/>
<path fill-rule="evenodd" clip-rule="evenodd" d="M73.407 17.4332C73.669 17.4332 73.9252 17.5109 74.1431 17.6565C74.361 17.8021 74.5308 18.0091 74.6311 18.2512C74.7314 18.4933 74.7577 18.7597 74.7065 19.0168C74.6554 19.2738 74.5292 19.5099 74.3439 19.6952C74.1586 19.8805 73.9225 20.0067 73.6655 20.0579C73.4084 20.109 73.142 20.0827 72.8999 19.9825C72.6578 19.8822 72.4508 19.7123 72.3052 19.4944C72.1596 19.2765 72.0819 19.0203 72.0819 18.7583C72.0823 18.407 72.222 18.0702 72.4704 17.8218C72.7188 17.5733 73.0557 17.4336 73.407 17.4332ZM79.9842 6.49548C79.7221 6.49548 79.4659 6.41777 79.248 6.27217C79.0301 6.12657 78.8603 5.91963 78.76 5.67751C78.6597 5.43539 78.6335 5.16897 78.6846 4.91194C78.7357 4.6549 78.8619 4.41881 79.0472 4.23349C79.2325 4.04818 79.4686 3.92199 79.7257 3.87086C79.9827 3.81973 80.2491 3.84597 80.4912 3.94626C80.7333 4.04655 80.9403 4.21639 81.0859 4.43429C81.2315 4.65219 81.3092 4.90837 81.3092 5.17044C81.3088 5.52174 81.1691 5.85855 80.9207 6.10696C80.6723 6.35537 80.3355 6.49509 79.9842 6.49548ZM85.3294 1.41931C82.962 1.41117 80.6621 2.20821 78.8075 3.67959C78.6121 3.83354 78.4489 4.02447 78.3273 4.24148C78.2057 4.45849 78.128 4.69732 78.0987 4.94435C78.0694 5.19138 78.089 5.44176 78.1565 5.6812C78.2239 5.92064 78.3379 6.14445 78.4918 6.33985C78.6458 6.53525 78.8367 6.69841 79.0537 6.82002C79.2708 6.94163 79.5096 7.01931 79.7566 7.04862C80.0036 7.07793 80.254 7.05829 80.4935 6.99084C80.7329 6.92338 80.9567 6.80942 81.1521 6.65547C82.3389 5.71025 83.8122 5.19728 85.3294 5.20098C86.2245 5.18785 87.1133 5.3528 87.944 5.68625C88.7748 6.01969 89.531 6.51498 90.1686 7.14331C90.8062 7.77164 91.3125 8.52046 91.6581 9.34624C92.0037 10.172 92.1817 11.0583 92.1817 11.9534C92.1817 12.8486 92.0037 13.7349 91.6581 14.5607C91.3125 15.3864 90.8062 16.1353 90.1686 16.7636C89.531 17.3919 88.7748 17.8872 87.944 18.2207C87.1133 18.5541 86.2245 18.7191 85.3294 18.7059C84.3549 18.7059 82.8379 18.3568 81.4983 17.3736C79.8372 16.1649 78.8555 14.2697 78.5646 11.7462C78.057 7.25909 75.8229 4.77336 74.0397 3.47887C71.9437 1.96475 69.5642 1.41931 68.0355 1.41931C65.2388 1.41931 62.5566 2.5303 60.5791 4.50788C58.6015 6.48546 57.4905 9.16764 57.4905 11.9644C57.4905 14.7611 58.6015 17.4433 60.5791 19.4208C62.5566 21.3984 65.2388 22.5094 68.0355 22.5094C70.4028 22.5181 72.7027 21.7215 74.5575 20.2506C74.753 20.0965 74.9162 19.9055 75.0378 19.6884C75.1595 19.4712 75.2372 19.2323 75.2665 18.9851C75.2958 18.7379 75.2762 18.4874 75.2087 18.2478C75.1412 18.0083 75.0271 17.7844 74.8731 17.5889C74.719 17.3934 74.528 17.2301 74.3109 17.1085C74.0937 16.9868 73.8548 16.9091 73.6076 16.8798C73.3604 16.8505 73.1099 16.8701 72.8703 16.9377C72.6308 17.0052 72.4069 17.1192 72.2114 17.2732C71.0241 18.2156 69.5513 18.7256 68.0355 18.719C67.1404 18.7321 66.2517 18.5672 65.4209 18.2337C64.5902 17.9003 63.834 17.405 63.1964 16.7767C62.5587 16.1484 62.0524 15.3995 61.7068 14.5737C61.3612 13.748 61.1832 12.8617 61.1832 11.9665C61.1832 11.0714 61.3612 10.1851 61.7068 9.35933C62.0524 8.53355 62.5587 7.78473 63.1964 7.1564C63.834 6.52807 64.5902 6.03278 65.4209 5.69934C66.2517 5.36589 67.1404 5.20094 68.0355 5.21407C68.9271 5.21407 70.4514 5.56606 71.8172 6.55366C73.5146 7.78561 74.5196 9.67935 74.8033 12.1811C75.3123 16.6798 77.5072 19.1626 79.2598 20.4411C80.8151 21.603 82.6646 22.306 84.599 22.4706C86.5333 22.6352 88.475 22.2548 90.2043 21.3725C91.9335 20.4902 93.381 19.1412 94.3829 17.4784C95.3848 15.8156 95.901 13.9055 95.873 11.9644C95.8703 9.16872 94.7586 6.48833 92.782 4.51137C90.8053 2.53442 88.125 1.42239 85.3294 1.41931Z" fill="#181B56"/>
<path fill-rule="evenodd" clip-rule="evenodd" d="M98.3151 19.9771C98.307 20.154 98.3344 20.3307 98.3957 20.4968C98.4569 20.6629 98.5509 20.8151 98.672 20.9442C98.7931 21.0734 98.9388 21.177 99.1006 21.2489C99.2624 21.3208 99.437 21.3596 99.614 21.3629C99.7911 21.3662 99.9669 21.334 100.131 21.2682C100.296 21.2024 100.445 21.1043 100.571 20.9797C100.697 20.8551 100.796 20.7066 100.864 20.5429C100.931 20.3792 100.965 20.2036 100.964 20.0266V19.9815C100.963 19.642 100.828 19.3167 100.588 19.0767C100.347 18.8368 100.022 18.7019 99.6823 18.7015C99.3345 18.6986 98.9987 18.8293 98.7444 19.0667C98.49 19.304 98.3363 19.6299 98.3151 19.9771Z" fill="#088D6C"/>
<path fill-rule="evenodd" clip-rule="evenodd" d="M100.964 20.0266C100.96 20.2004 100.923 20.3719 100.854 20.5312C100.784 20.6906 100.684 20.8347 100.559 20.9553C100.433 21.0759 100.286 21.1707 100.124 21.2342C99.962 21.2977 99.7892 21.3287 99.6154 21.3255C99.4416 21.3222 99.2701 21.2848 99.1108 21.2153C98.9515 21.1457 98.8074 21.0455 98.6868 20.9203C98.5661 20.7951 98.4714 20.6474 98.4079 20.4856C98.3443 20.3237 98.3133 20.151 98.3166 19.9772C98.3378 19.6299 98.4914 19.304 98.7458 19.0667C99.0002 18.8294 99.3359 18.6987 99.6838 18.7016C100.023 18.702 100.348 18.8369 100.588 19.0769C100.828 19.3168 100.963 19.6422 100.964 19.9815V20.0266ZM108.143 18.1736H101.464V3.90215C101.464 3.4107 101.269 2.93938 100.921 2.59187C100.574 2.24436 100.103 2.04913 99.6111 2.04913C99.1196 2.04913 98.6483 2.24436 98.3008 2.59187C97.9533 2.93938 97.7581 3.4107 97.7581 3.90215V20.0266C97.7581 20.5181 97.9533 20.9894 98.3008 21.3369C98.6483 21.6844 99.1196 21.8796 99.6111 21.8796H108.091C108.334 21.8798 108.575 21.832 108.8 21.739C109.025 21.646 109.23 21.5095 109.402 21.3374C109.574 21.1653 109.711 20.961 109.804 20.7361C109.897 20.5112 109.945 20.2701 109.945 20.0266V19.9815C109.945 19.744 109.898 19.5088 109.807 19.2893C109.717 19.0699 109.583 18.8705 109.415 18.7026C109.247 18.5347 109.048 18.4016 108.828 18.3108C108.609 18.22 108.373 18.1734 108.136 18.1736" fill="#181B56"/>
<path fill-rule="evenodd" clip-rule="evenodd" d="M120.018 3.89193C120.018 4.154 120.095 4.41019 120.241 4.62809C120.386 4.84599 120.593 5.01582 120.836 5.11611C121.078 5.2164 121.344 5.24264 121.601 5.19151C121.858 5.14039 122.094 5.01419 122.28 4.82888C122.465 4.64357 122.591 4.40747 122.642 4.15044C122.693 3.8934 122.667 3.62698 122.567 3.38486C122.467 3.14274 122.297 2.9358 122.079 2.7902C121.861 2.64461 121.605 2.56689 121.343 2.56689C120.991 2.56689 120.654 2.7065 120.406 2.95499C120.157 3.20348 120.018 3.54051 120.018 3.89193Z" fill="#FF3939"/>
<path fill-rule="evenodd" clip-rule="evenodd" d="M121.344 5.21552C121.082 5.2158 120.825 5.1383 120.607 4.99281C120.389 4.84733 120.219 4.6404 120.119 4.39822C120.018 4.15604 119.992 3.8895 120.043 3.63233C120.094 3.37516 120.22 3.13893 120.406 2.95353C120.591 2.76814 120.827 2.64191 121.084 2.59083C121.342 2.53975 121.608 2.56611 121.85 2.66658C122.093 2.76705 122.299 2.93711 122.445 3.15523C122.59 3.37336 122.668 3.62974 122.668 3.89193C122.667 4.24285 122.528 4.57928 122.28 4.82742C122.031 5.07556 121.695 5.21513 121.344 5.21552ZM131.187 19.1975L123.072 3.20978C122.935 2.86292 122.697 2.56538 122.389 2.35609C122.08 2.1468 121.716 2.0355 121.343 2.03675C120.97 2.03801 120.606 2.15177 120.299 2.36314C119.992 2.5745 119.756 2.87364 119.622 3.22141L111.501 19.199C111.368 19.4581 111.299 19.7454 111.299 20.0368C111.298 20.4535 111.438 20.8582 111.696 21.1857C111.954 21.5131 112.314 21.744 112.72 21.8411C113.125 21.9381 113.551 21.8957 113.929 21.7205C114.307 21.5454 114.615 21.2479 114.803 20.876L121.348 8.00377L124.09 13.4057H120.959C120.711 13.3988 120.464 13.4416 120.233 13.5317C120.002 13.6217 119.792 13.7571 119.614 13.9299C119.436 14.1028 119.295 14.3095 119.198 14.5378C119.102 14.7662 119.052 15.0116 119.052 15.2595C119.052 15.5074 119.102 15.7528 119.198 15.9811C119.295 16.2095 119.436 16.4162 119.614 16.589C119.792 16.7619 120.002 16.8973 120.233 16.9873C120.464 17.0774 120.711 17.1202 120.959 17.1132H125.968L127.882 20.8804C128.071 21.2517 128.379 21.5488 128.757 21.7236C129.135 21.8983 129.561 21.9406 129.966 21.8437C130.371 21.7467 130.731 21.5161 130.989 21.189C131.247 20.862 131.387 20.4576 131.387 20.0411C131.387 19.7496 131.318 19.4623 131.184 19.2033L131.187 19.1975Z" fill="#181B56"/>
<path fill-rule="evenodd" clip-rule="evenodd" d="M135.936 3.89192C135.936 3.62979 135.858 3.37347 135.713 3.15538C135.567 2.93728 135.361 2.76722 135.119 2.66671C134.876 2.5662 134.61 2.53975 134.353 2.59071C134.096 2.64168 133.859 2.76776 133.674 2.95301C133.489 3.13826 133.362 3.37436 133.311 3.63143C133.26 3.8885 133.286 4.155 133.386 4.3972C133.486 4.63941 133.656 4.84644 133.874 4.9921C134.092 5.13776 134.348 5.21551 134.61 5.21551C134.962 5.21513 135.298 5.0756 135.546 4.8275C135.795 4.57941 135.935 4.24298 135.936 3.89192Z" fill="#088D6C"/>
<path fill-rule="evenodd" clip-rule="evenodd" d="M135.935 20.0368C135.935 19.7747 135.858 19.5185 135.712 19.3006C135.567 19.0827 135.36 18.9129 135.118 18.8126C134.875 18.7123 134.609 18.6861 134.352 18.7372C134.095 18.7883 133.859 18.9145 133.673 19.0998C133.488 19.2851 133.362 19.5212 133.311 19.7783C133.26 20.0353 133.286 20.3017 133.386 20.5438C133.487 20.786 133.656 20.9929 133.874 21.1385C134.092 21.2841 134.348 21.3618 134.61 21.3618C134.962 21.3614 135.299 21.2217 135.547 20.9733C135.795 20.7249 135.935 20.3881 135.935 20.0368Z" fill="#FFBC67"/>
<path fill-rule="evenodd" clip-rule="evenodd" d="M143.58 18.1837H136.463V5.76678H142.776C145.257 5.86132 145.201 9.63572 142.689 9.6779H139.335C139.271 9.67762 139.206 9.68102 139.143 9.68808C138.687 9.7339 138.265 9.94743 137.958 10.2872C137.651 10.6269 137.481 11.0687 137.482 11.5266C137.482 11.5804 137.482 11.6327 137.482 11.6836C137.482 11.6933 137.482 11.703 137.482 11.7127C137.528 12.1697 137.742 12.5933 138.083 12.9013C138.424 13.2093 138.867 13.3797 139.326 13.3796H142.708C143.345 13.4087 144.693 13.1498 145.563 14.4399C145.805 14.8007 145.946 15.2205 145.969 15.6547C145.991 16.0889 145.896 16.5212 145.692 16.9054C145.489 17.2896 145.185 17.6115 144.813 17.8366C144.441 18.0617 144.015 18.1817 143.58 18.1837ZM134.61 5.21552C134.348 5.21552 134.092 5.13777 133.874 4.99211C133.656 4.84645 133.486 4.63942 133.386 4.39722C133.286 4.15501 133.26 3.88852 133.311 3.63145C133.362 3.37437 133.489 3.13828 133.674 2.95303C133.86 2.76777 134.096 2.64169 134.353 2.59073C134.61 2.53977 134.876 2.56621 135.119 2.66673C135.361 2.76724 135.567 2.9373 135.713 3.15539C135.858 3.37348 135.936 3.62981 135.936 3.89194C135.935 4.24311 135.795 4.57976 135.547 4.82794C135.298 5.07612 134.962 5.21552 134.61 5.21552ZM134.61 21.3604C134.348 21.3604 134.092 21.2826 133.874 21.137C133.656 20.9914 133.487 20.7845 133.386 20.5424C133.286 20.3003 133.26 20.0338 133.311 19.7768C133.362 19.5198 133.488 19.2837 133.674 19.0984C133.859 18.9131 134.095 18.7869 134.352 18.7357C134.609 18.6846 134.875 18.7108 135.118 18.8111C135.36 18.9114 135.567 19.0813 135.712 19.2992C135.858 19.5171 135.936 19.7732 135.936 20.0353C135.935 20.3866 135.795 20.7234 135.547 20.9718C135.299 21.2202 134.962 21.36 134.61 21.3604ZM147.311 10.9477C147.326 10.9258 147.342 10.904 147.356 10.8808C149.896 7.12381 147.189 2.03601 142.655 2.03601H134.61H134.578H134.504C134.052 2.06103 133.625 2.25082 133.303 2.56948C132.982 2.88814 132.788 3.31359 132.759 3.7654C132.759 3.7974 132.759 3.8294 132.759 3.86139C132.759 3.86867 132.759 3.87594 132.759 3.88467V20.0368C132.759 20.0891 132.759 20.1415 132.759 20.1924C132.759 20.2099 132.759 20.2259 132.759 20.2419C132.759 20.2579 132.766 20.3117 132.772 20.3451C132.778 20.3786 132.779 20.3829 132.782 20.4004C132.785 20.4178 132.795 20.4629 132.804 20.4949C132.813 20.5269 132.814 20.5313 132.819 20.5502C132.823 20.5691 132.819 20.5764 132.829 20.588C132.839 20.5997 132.839 20.6127 132.843 20.6258C132.848 20.6389 132.865 20.6898 132.878 20.7218L132.904 20.7858C132.919 20.8178 132.933 20.8484 132.949 20.8804L132.97 20.9211L132.981 20.94L133.021 21.0069L133.063 21.0738C133.077 21.0942 133.093 21.1145 133.108 21.1364L133.156 21.1989C133.172 21.2193 133.189 21.2382 133.205 21.2571L133.258 21.3153L133.313 21.3705L133.37 21.4229L133.429 21.4738L133.491 21.5218C133.511 21.5378 133.533 21.5523 133.555 21.5669L133.62 21.6105L133.687 21.6483L133.755 21.6876L133.827 21.7211L133.877 21.7443H133.896L134.005 21.7836L134.058 21.8025C134.113 21.82 134.169 21.8345 134.225 21.8462C134.348 21.8713 134.473 21.884 134.599 21.884H143.58C149.374 21.884 151.907 14.4966 147.313 10.9418" fill="#181B56"/>
<path fill-rule="evenodd" clip-rule="evenodd" d="M9.58546 10.4779C9.54913 10.476 9.51272 10.476 9.47638 10.4779C9.14426 10.4771 8.82394 10.6009 8.5787 10.8249C8.33346 11.0488 8.18116 11.3566 8.15189 11.6875C8.12262 12.0183 8.21852 12.3481 8.42062 12.6116C8.62272 12.8751 8.91634 13.0533 9.24343 13.1108C9.57052 13.1683 9.9073 13.1011 10.1872 12.9223C10.4671 12.7436 10.6698 12.4663 10.7551 12.1454C10.8405 11.8244 10.8024 11.4831 10.6483 11.1889C10.4942 10.8947 10.2354 10.669 9.92291 10.5564C9.81413 10.5174 9.70066 10.4929 9.58546 10.4837" fill="#FFBC67"/>
<path fill-rule="evenodd" clip-rule="evenodd" d="M9.47638 13.1207C9.29878 13.1266 9.12181 13.0967 8.95599 13.0328C8.79018 12.9689 8.63891 12.8723 8.51119 12.7487C8.38348 12.6252 8.28191 12.4772 8.21255 12.3136C8.14319 12.15 8.10745 11.9741 8.10745 11.7964C8.10745 11.6187 8.14319 11.4428 8.21255 11.2792C8.28191 11.1156 8.38348 10.9676 8.51119 10.844C8.63891 10.7205 8.79018 10.6239 8.95599 10.56C9.12181 10.4961 9.29878 10.4662 9.47638 10.4721C9.51272 10.4702 9.54913 10.4702 9.58547 10.4721C9.70069 10.4812 9.81418 10.5056 9.92291 10.5448C10.221 10.6467 10.4729 10.8515 10.6335 11.1225C10.7941 11.3935 10.8528 11.7129 10.799 12.0233C10.7452 12.3337 10.5824 12.6147 10.34 12.8158C10.0976 13.017 9.79136 13.1251 9.47638 13.1207ZM9.62183 9.9499C8.29243 9.65901 6.06706 9.04812 6.06124 7.70999C6.06052 7.69594 6.06052 7.68186 6.06124 7.66781C6.0976 6.12023 6.69249 5.27081 9.11567 5.27081C10.2604 5.27081 11.3832 5.41626 13.5969 6.56531C13.8138 6.68462 14.0525 6.75926 14.2987 6.78483C14.5449 6.81039 14.7937 6.78636 15.0305 6.71416C15.2673 6.64196 15.4872 6.52304 15.6773 6.36444C15.8674 6.20583 16.0237 6.01076 16.1371 5.79072C16.2505 5.57068 16.3187 5.33015 16.3376 5.08333C16.3566 4.83651 16.3258 4.5884 16.2473 4.35365C16.1687 4.1189 16.0439 3.90227 15.8802 3.71655C15.7166 3.53083 15.5174 3.37979 15.2943 3.27235C14.509 2.85914 13.6959 2.50095 12.861 2.20039C8.49751 0.677537 2.51229 1.55314 2.36393 7.582C2.36393 7.62709 2.36393 7.67072 2.36393 7.71435C2.36259 8.20171 2.43167 8.6867 2.56901 9.1543C4.25331 14.8152 13.517 12.8152 13.5257 16.3293C13.5257 17.5176 12.653 18.6812 10.0509 18.6812C7.91426 18.6812 6.29541 17.999 4.57475 16.8704C4.16348 16.6179 3.66993 16.5358 3.19908 16.6416C2.72823 16.7474 2.31722 17.0327 2.05348 17.4368C1.78973 17.841 1.69406 18.3321 1.78681 18.8057C1.87955 19.2793 2.1534 19.698 2.55011 19.9728C4.90347 21.5145 7.19574 22.3858 10.0524 22.3858C14.6689 22.3858 17.2332 19.6295 17.2332 16.3278C17.2332 12.5025 13.8049 10.8924 10.1062 10.0561C9.95368 10.0016 9.79481 9.96685 9.63347 9.95281" fill="#181B56"/>
<path fill-rule="evenodd" clip-rule="evenodd" d="M22.9406 4.72101C22.6796 4.72072 22.4244 4.79785 22.2073 4.94263C21.9902 5.08741 21.8208 5.29335 21.7208 5.53438C21.6207 5.77541 21.5944 6.04071 21.6451 6.29671C21.6958 6.55271 21.8214 6.7879 22.0058 6.97255C22.1902 7.15719 22.4253 7.28298 22.6813 7.334C22.9372 7.38502 23.2025 7.35898 23.4437 7.25917C23.6848 7.15937 23.8909 6.99028 24.0359 6.7733C24.181 6.55633 24.2584 6.30121 24.2584 6.04023C24.258 5.69072 24.1191 5.35562 23.8721 5.10834C23.6251 4.86106 23.2901 4.72178 22.9406 4.72101Z" fill="#FF3939"/>
<path fill-rule="evenodd" clip-rule="evenodd" d="M22.9406 19.1947C23.2015 19.1947 23.4565 19.1173 23.6735 18.9723C23.8904 18.8274 24.0595 18.6213 24.1594 18.3803C24.2592 18.1392 24.2853 17.874 24.2344 17.6181C24.1835 17.3622 24.0579 17.1271 23.8734 16.9426C23.6889 16.7581 23.4538 16.6325 23.1979 16.5816C22.942 16.5307 22.6768 16.5568 22.4357 16.6566C22.1947 16.7565 21.9886 16.9256 21.8437 17.1425C21.6987 17.3595 21.6213 17.6145 21.6213 17.8754C21.6213 18.2253 21.7603 18.5609 22.0077 18.8083C22.2551 19.0557 22.5907 19.1947 22.9406 19.1947Z" fill="#088D6C"/>
<path fill-rule="evenodd" clip-rule="evenodd" d="M21.6214 17.8754C21.6214 17.6145 21.6988 17.3594 21.8437 17.1425C21.9887 16.9255 22.1947 16.7564 22.4358 16.6566C22.6768 16.5568 22.9421 16.5306 23.198 16.5815C23.4539 16.6324 23.689 16.7581 23.8735 16.9426C24.058 17.1271 24.1836 17.3621 24.2345 17.618C24.2854 17.8739 24.2593 18.1392 24.1594 18.3802C24.0596 18.6213 23.8905 18.8273 23.6735 18.9723C23.4566 19.1173 23.2015 19.1946 22.9406 19.1946C22.5909 19.1942 22.2555 19.0551 22.0082 18.8078C21.7609 18.5605 21.6218 18.2252 21.6214 17.8754ZM24.2584 6.04022C24.2587 6.30126 24.1815 6.55652 24.0367 6.77369C23.8918 6.99086 23.6858 7.16017 23.4447 7.2602C23.2036 7.36023 22.9382 7.38648 22.6822 7.33562C22.4261 7.28476 22.1909 7.15909 22.0063 6.97451C21.8218 6.78992 21.6961 6.55473 21.6452 6.29869C21.5944 6.04265 21.6206 5.77728 21.7206 5.53616C21.8207 5.29505 21.99 5.08903 22.2072 4.94418C22.4243 4.79933 22.6796 4.72217 22.9406 4.72246C23.29 4.72284 23.625 4.8618 23.872 5.10885C24.119 5.35589 24.258 5.69085 24.2584 6.04022ZM22.3428 11.9644C22.3411 10.6846 22.7163 9.43258 23.4214 8.36458C24.1266 7.29658 25.1306 6.45981 26.3082 5.95865C27.4858 5.45749 28.7848 5.31412 30.0434 5.54641C31.3019 5.7787 32.4642 6.37638 33.3853 7.2649L33.4333 7.30563C33.4576 7.32946 33.4834 7.3518 33.5104 7.37253C33.5322 7.39144 33.5555 7.40744 33.5788 7.4249L33.6544 7.47871L33.7315 7.52526C33.7577 7.5398 33.7824 7.5558 33.8086 7.56889C33.8348 7.58198 33.8624 7.59507 33.89 7.60816C33.916 7.62175 33.9427 7.63389 33.97 7.64452C33.9977 7.65616 34.0253 7.66489 34.0529 7.67507L34.1402 7.70416C34.1679 7.71297 34.1961 7.72025 34.2246 7.72598C34.2536 7.72598 34.2827 7.74197 34.3133 7.74779L34.4093 7.76234L34.4907 7.77397C34.5416 7.77397 34.594 7.78125 34.6464 7.78125H34.6711H34.7496C34.7845 7.78125 34.8194 7.78125 34.8543 7.78125C34.8893 7.78125 34.9416 7.76961 34.9853 7.76234L35.0362 7.75361C35.0812 7.74488 35.1263 7.73325 35.17 7.72016L35.2136 7.70852C35.2572 7.69543 35.2994 7.67943 35.3431 7.66343C35.3576 7.65616 35.3721 7.65325 35.3867 7.64598C35.4303 7.62853 35.474 7.60671 35.5161 7.58489L35.554 7.56744C35.6063 7.53835 35.6587 7.50635 35.7096 7.47289L35.7518 7.43944C35.7886 7.41423 35.8235 7.38805 35.8565 7.3609L35.9016 7.32017C35.9336 7.29108 35.9656 7.26345 35.9947 7.2329L36.0063 7.22127C36.0194 7.20818 36.0296 7.19363 36.0427 7.18054L36.1168 7.09473L36.1648 7.03073L36.223 6.94928L36.2667 6.8751C36.2827 6.84746 36.2987 6.82128 36.3132 6.79365C36.3277 6.76601 36.3394 6.73983 36.3525 6.71365C36.3656 6.68747 36.3772 6.65693 36.3888 6.62784C36.4005 6.59875 36.4092 6.57402 36.4194 6.54639C36.4296 6.51875 36.4397 6.48675 36.4485 6.45621C36.4572 6.42566 36.463 6.40094 36.4703 6.3733C36.4776 6.34567 36.4848 6.31221 36.4906 6.28167C36.4965 6.25112 36.5008 6.22058 36.5052 6.19004C36.5096 6.15949 36.5052 6.13186 36.5154 6.10277C36.5256 6.07368 36.5154 6.03441 36.5154 5.9995C36.5154 5.96459 36.5154 5.95732 36.5154 5.93695C36.5154 5.91659 36.5154 5.92532 36.5154 5.9195C36.5154 5.88459 36.5154 5.84969 36.5154 5.81478C36.5154 5.77987 36.5154 5.76096 36.5154 5.73478C36.5154 5.7086 36.5066 5.67369 36.5023 5.64315C36.4979 5.6126 36.4936 5.58351 36.4863 5.55297C36.479 5.52242 36.4732 5.50352 36.4674 5.47734C36.4616 5.45115 36.4514 5.41188 36.4412 5.37843L36.4136 5.30425C36.4019 5.27225 36.3917 5.24171 36.3787 5.21116C36.3656 5.18062 36.351 5.15298 36.3379 5.12389C36.3248 5.09481 36.3147 5.07444 36.3016 5.04972C36.2885 5.02499 36.2667 4.99299 36.2492 4.96536L36.207 4.89554C36.191 4.87081 36.1721 4.849 36.1532 4.82427C36.1343 4.79954 36.1168 4.77336 36.0965 4.75009C36.0761 4.72682 36.0616 4.71082 36.0441 4.69191C36.0267 4.673 35.9961 4.6381 35.9699 4.61337L35.9583 4.60173C34.0554 2.76285 31.5124 1.73542 28.8662 1.73639C26.1536 1.73639 23.5521 2.81398 21.6339 4.73209C19.7158 6.65021 18.6382 9.25173 18.6382 11.9644C18.6382 14.677 19.7158 17.2785 21.6339 19.1966C23.5521 21.1147 26.1536 22.1923 28.8662 22.1923C31.465 22.195 33.9669 21.2067 35.8623 19.4288L35.8827 19.407C35.9059 19.3852 35.9278 19.3619 35.9496 19.3386C35.9714 19.3153 35.9903 19.295 36.0092 19.2717C36.0281 19.2484 36.0456 19.2266 36.063 19.2034L36.1212 19.1263C36.1358 19.1044 36.1503 19.0812 36.1634 19.0579C36.1765 19.0346 36.1998 19.0012 36.2157 18.9735C36.2318 18.9459 36.2405 18.9226 36.2536 18.8979C36.2667 18.8732 36.2812 18.8426 36.2943 18.8135L36.3277 18.7263C36.3379 18.7001 36.3481 18.6739 36.3568 18.6463C36.3656 18.6186 36.3743 18.5837 36.383 18.5517C36.3917 18.5197 36.3976 18.4994 36.4034 18.4717C36.4092 18.4441 36.415 18.4107 36.4208 18.3787L36.4339 18.2914C36.4339 18.2623 36.4339 18.2332 36.4339 18.2041C36.4339 18.175 36.4339 18.1387 36.4339 18.1052C36.4339 18.0965 36.4339 18.0863 36.4339 18.0761C36.4339 18.0659 36.4339 18.0398 36.4339 18.0208V17.9219C36.4339 17.8929 36.4339 17.8638 36.4237 17.8347C36.4136 17.8056 36.415 17.7736 36.4092 17.743C36.4034 17.7125 36.3976 17.6834 36.3903 17.6529C36.383 17.6223 36.3772 17.5961 36.3685 17.5685C36.3597 17.5409 36.351 17.5074 36.3408 17.4783L36.3103 17.3969C36.2987 17.3678 36.287 17.3387 36.2739 17.3111C36.2608 17.2834 36.2492 17.2572 36.2361 17.2311L36.191 17.1496C36.1765 17.1249 36.1619 17.1002 36.1459 17.0754C36.1299 17.0507 36.1096 17.0216 36.0907 16.9954C36.0718 16.9693 36.0572 16.9503 36.0398 16.9285C36.0223 16.9067 35.9961 16.8747 35.9729 16.8485C35.9496 16.8224 35.951 16.8209 35.9394 16.8093C35.9335 16.8026 35.9272 16.7963 35.9205 16.7904L35.8361 16.7104C35.8187 16.6928 35.8003 16.6762 35.7809 16.6609C35.7531 16.6365 35.7239 16.6137 35.6936 16.5925C35.6732 16.5765 35.6543 16.5605 35.6325 16.546C35.6107 16.5315 35.5685 16.5053 35.535 16.4864L35.4754 16.45C35.4245 16.4224 35.3707 16.3962 35.3169 16.3729C35.1457 16.2997 34.9641 16.2536 34.7787 16.2362H34.7554C34.7031 16.2362 34.6478 16.2275 34.594 16.2275H34.5736C34.5213 16.2275 34.4675 16.2275 34.4151 16.2275L34.338 16.2391L34.2391 16.2536L34.1547 16.274C34.1242 16.2813 34.0951 16.2871 34.066 16.2958L33.9831 16.3249C33.9545 16.3336 33.9263 16.3438 33.8987 16.3555C33.8711 16.3656 33.8449 16.3787 33.8188 16.3904C33.7926 16.402 33.7635 16.4151 33.7373 16.4296C33.7111 16.4442 33.6864 16.4573 33.6617 16.4718C33.6369 16.4864 33.6093 16.5024 33.5846 16.5198C33.5599 16.5373 33.5351 16.5533 33.5104 16.5707C33.4857 16.5882 33.4639 16.6042 33.4406 16.6231C33.4173 16.642 33.3911 16.6638 33.3679 16.6856L33.3257 16.7205C32.1193 17.8578 30.5227 18.4892 28.8648 18.4848C27.9929 18.4869 27.1296 18.3127 26.3267 17.9729C25.1448 17.4748 24.1363 16.6389 23.4276 15.5701C22.7189 14.5012 22.3416 13.2468 22.3428 11.9644Z" fill="#181B56"/>
</svg>
