<svg width="20" height="20" viewBox="0 0 20 20" fill="none" xmlns="http://www.w3.org/2000/svg">
<path fill-rule="evenodd" clip-rule="evenodd" d="M6.07085 1.12524C6.07085 0.513339 5.57407 0.0166016 4.9622 0.0166016H1.1311C0.519218 0.0166016 0.0224609 0.513339 0.0224609 1.12524V18.8636C0.0224609 19.4755 0.519218 19.9723 1.1311 19.9723H4.9622C5.57407 19.9723 6.07085 19.4755 6.07085 18.8636V1.12524Z" fill="#3D3D3D" stroke="#EBEBEB" stroke-width="0.00082956" stroke-miterlimit="1.5" stroke-linecap="round" stroke-linejoin="round"/>
<path fill-rule="evenodd" clip-rule="evenodd" d="M19.9781 1.11987C19.9781 0.507988 19.4813 0.0112305 18.8694 0.0112305H8.08471C7.47284 0.0112305 6.97607 0.507988 6.97607 1.11987V4.95095C6.97607 5.56284 7.47284 6.05962 8.08471 6.05962H18.8694C19.4813 6.05962 19.9781 5.56284 19.9781 4.95095V1.11987Z" fill="#3D3D3D" stroke="#EBEBEB" stroke-width="0.000968792" stroke-miterlimit="1.5" stroke-linecap="round" stroke-linejoin="round"/>
<path fill-rule="evenodd" clip-rule="evenodd" d="M13.0245 15.0325C13.0245 14.4206 12.5277 13.9238 11.9158 13.9238H8.08472C7.47283 13.9238 6.97607 14.4206 6.97607 15.0325V18.8636C6.97607 19.4754 7.47283 19.9722 8.08472 19.9722H11.9158C12.5277 19.9722 13.0245 19.4754 13.0245 18.8636V15.0325Z" fill="#3D3D3D" stroke="#EBEBEB" stroke-width="0.00110775" stroke-miterlimit="1.5" stroke-linecap="round" stroke-linejoin="round"/>
<path fill-rule="evenodd" clip-rule="evenodd" d="M13.0245 8.07886C13.0245 7.46697 12.5277 6.97021 11.9158 6.97021H8.08472C7.47283 6.97021 6.97607 7.46697 6.97607 8.07886V11.9099C6.97607 12.5218 7.47283 13.0186 8.08472 13.0186H11.9158C12.5277 13.0186 13.0245 12.5218 13.0245 11.9099V8.07886Z" fill="#3D3D3D" stroke="#EBEBEB" stroke-width="0.00110775" stroke-miterlimit="1.5" stroke-linecap="round" stroke-linejoin="round"/>
<path fill-rule="evenodd" clip-rule="evenodd" d="M19.9781 15.0325C19.9781 14.4206 19.4813 13.9238 18.8694 13.9238H15.0383C14.4264 13.9238 13.9297 14.4206 13.9297 15.0325V18.8636C13.9297 19.4754 14.4264 19.9722 15.0383 19.9722H18.8694C19.4813 19.9722 19.9781 19.4754 19.9781 18.8636V15.0325Z" fill="#3D3D3D" stroke="#EBEBEB" stroke-width="0.00110775" stroke-miterlimit="1.5" stroke-linecap="round" stroke-linejoin="round"/>
<path fill-rule="evenodd" clip-rule="evenodd" d="M19.9781 8.07886C19.9781 7.46697 19.4813 6.97021 18.8694 6.97021H15.0383C14.4264 6.97021 13.9297 7.46697 13.9297 8.07886V11.9099C13.9297 12.5218 14.4264 13.0186 15.0383 13.0186H18.8694C19.4813 13.0186 19.9781 12.5218 19.9781 11.9099V8.07886Z" fill="#3D3D3D" stroke="#EBEBEB" stroke-width="0.00110775" stroke-miterlimit="1.5" stroke-linecap="round" stroke-linejoin="round"/>
</svg>
