<svg width="138" height="40" viewBox="0 0 138 40" fill="none" xmlns="http://www.w3.org/2000/svg">
<path d="M30.5513 14.6108H36.1245V29.0512H30.5513V14.6108Z" fill="white"/>
<path d="M40.8602 14.6108H46.3169V17.9608C47.6724 15.4181 50.3619 14.0626 54.0011 14.0626C59.2592 14.0626 62.0868 16.8643 62.0868 22.2088V29.0555H56.5136V23.0506C56.5136 19.7006 54.9811 18.0558 51.7477 18.0558C48.5142 18.0558 46.4335 19.8733 46.4335 23.111V29.0598H40.8602V14.6195V14.6108Z" fill="white"/>
<path d="M62.8682 34.7409V30.7564C63.3604 30.8427 64.0813 30.8989 64.6295 30.8989C65.9592 30.8989 66.624 30.0915 66.624 27.9546V14.6108H72.1972V28.7058C72.1972 32.7206 70.4359 35 65.3246 35C64.5173 35 63.4769 34.9136 62.8682 34.7409Z" fill="white"/>
<path d="M96.7177 23.0419H80.6326C81.0643 24.9759 83.089 26.1026 86.3526 26.1026C88.7486 26.1026 90.8293 25.2954 91.8956 23.9658L96.1694 25.8134C94.1491 28.2396 90.7689 29.5951 86.1195 29.5951C79.3332 29.5951 75.2623 26.7373 75.2623 21.885C75.2623 17.0327 79.48 14.0583 85.9771 14.0583C92.4741 14.0583 96.722 17.119 96.722 22.2303V23.0376L96.7177 23.0419ZM91.1747 20.1539C91.1186 18.3364 88.9817 17.0629 85.9468 17.0629C82.912 17.0629 80.9521 18.276 80.6024 20.1539H91.1747Z" fill="white"/>
<path d="M99.0014 21.7728C99.0014 16.9766 103.219 14.0626 110.148 14.0626C115.98 14.0626 119.878 16.0829 120.832 19.6963L114.94 20.4474C114.361 18.7422 112.63 17.7623 109.971 17.7623C106.763 17.7623 104.773 19.2948 104.773 21.7468C104.773 24.1989 106.854 25.848 109.971 25.848C112.686 25.848 114.391 24.9241 114.966 23.1628L120.828 24.0003C119.904 27.4668 115.803 29.6038 110.083 29.6038C103.267 29.6038 98.9927 26.5732 98.9927 21.7771L99.0014 21.7728Z" fill="white"/>
<path d="M121.238 14.6108H125.512V11.2306L131.085 9.26637V14.6108H137.582V18.1033H131.085V22.2907C131.085 24.3413 132.242 25.2651 134.608 25.2651C135.877 25.2651 136.917 25.0622 137.582 24.8896V28.7878C136.689 29.1936 135.156 29.4526 133.166 29.4526C128.197 29.4526 125.512 27.5445 125.512 23.357V18.0989H121.238V14.6065V14.6108Z" fill="white"/>
<path d="M36.254 7.98431H30.4822V12.6035H36.254V7.98431Z" fill="white"/>
<path d="M72.3397 7.98431H66.2786V12.6035H72.3397V7.98431Z" fill="white"/>
<path d="M11.3537 29.0771V24.7083C11.8933 24.8033 12.6833 24.868 13.2877 24.868C14.7425 24.868 15.4721 23.983 15.4721 21.6389V7.00433H21.5849V22.4635C21.5849 26.8668 19.6552 29.3707 14.0475 29.3707C13.1625 29.3707 12.0185 29.2757 11.3537 29.0857V29.0771Z" fill="#2B4393"/>
<path d="M7.3691 7H13.4819V22.839H7.3691V7Z" fill="#2D6753"/>
<path d="M3.8147e-05 16.3895L3.8147e-05 22.852H5.16746V16.3895H3.8147e-05Z" fill="#E49FC0"/>
<path d="M0 7.01726L0 13.8036H5.16742V7.01726H0Z" fill="#FABA69"/>
</svg>
