<svg width="138" height="28" viewBox="0 0 138 28" fill="none" xmlns="http://www.w3.org/2000/svg">
<path d="M30.5562 7.60767H36.1303V22.0502H30.5562V7.60767Z" fill="#18192E"/>
<path d="M40.8667 7.60768H46.3242V10.9582C47.68 8.41509 50.3699 7.05933 54.0097 7.05933C59.2686 7.05933 62.0967 9.86154 62.0967 15.2068V22.0546H56.5226V16.0487C56.5226 12.6982 54.9898 11.0532 51.7559 11.0532C48.5219 11.0532 46.4408 12.8709 46.4408 16.1091V22.0589H40.8667V7.61632V7.60768Z" fill="#18192E"/>
<path d="M62.8782 27.741V23.7558C63.3704 23.8422 64.0914 23.8982 64.6398 23.8982C65.9696 23.8982 66.6345 23.0909 66.6345 20.9536V7.60767H72.2086V21.7049C72.2086 25.7203 70.447 28 65.3349 28C64.5275 28 63.487 27.9137 62.8782 27.741Z" fill="#18192E"/>
<path d="M96.733 16.0444H80.6454C81.0772 17.9787 83.1022 19.1057 86.3663 19.1057C88.7626 19.1057 90.8437 18.2982 91.9102 16.9683L96.1847 18.8163C94.164 21.2429 90.7833 22.5986 86.1332 22.5986C79.3458 22.5986 75.2742 19.7404 75.2742 14.8873C75.2742 10.0343 79.4926 7.05933 85.9907 7.05933C92.4888 7.05933 96.7373 10.1206 96.7373 15.2327V16.0401L96.733 16.0444ZM91.1892 13.1559C91.133 11.3382 88.9958 10.0644 85.9605 10.0644C82.9251 10.0644 80.9649 11.2777 80.6152 13.1559H91.1892Z" fill="#18192E"/>
<path d="M99.0171 14.7707C99.0171 9.9738 103.235 7.05933 110.165 7.05933C115.998 7.05933 119.897 9.08001 120.851 12.6939L114.958 13.4452C114.379 11.7397 112.648 10.7596 109.988 10.7596C106.78 10.7596 104.79 12.2924 104.79 14.7448C104.79 17.1972 106.871 18.8466 109.988 18.8466C112.704 18.8466 114.41 17.9226 114.984 16.161L120.847 16.9986C119.923 20.4657 115.821 22.6029 110.101 22.6029C103.283 22.6029 99.0084 19.572 99.0084 14.775L99.0171 14.7707Z" fill="#18192E"/>
<path d="M121.257 7.60767H125.532V4.22701L131.106 2.26245V7.60767H137.604V11.1007H131.106V15.2888C131.106 17.3397 132.263 18.2636 134.629 18.2636C135.899 18.2636 136.939 18.0608 137.604 17.8881V21.7869C136.71 22.1928 135.177 22.4519 133.187 22.4519C128.217 22.4519 125.532 20.5434 125.532 16.3553V11.0964H121.257V7.60335V7.60767Z" fill="#18192E"/>
<path d="M36.2598 0.984436H30.4871V5.60432H36.2598V0.984436Z" fill="#18192E"/>
<path d="M72.3511 0.984436H66.2891V5.60432H72.3511V0.984436Z" fill="#18192E"/>
<path d="M11.3555 22.0805V17.7111C11.8952 17.8061 12.6853 17.8708 13.2898 17.8708C14.7448 17.8708 15.4745 16.9857 15.4745 14.6412V0.0043335H21.5883V15.4658C21.5883 19.8698 19.6583 22.3741 14.0497 22.3741C13.1646 22.3741 12.0204 22.2791 11.3555 22.0892V22.0805Z" fill="#2B4393"/>
<path d="M7.37024 0H13.4841V15.8415H7.37024V0Z" fill="#2D6753"/>
<path d="M0 9.38661L0 15.8502H5.16823V9.38661H0Z" fill="#E49FC0"/>
<path d="M0 0.0129828L0 6.80035H5.16823V0.0129828H0Z" fill="#FABA69"/>
</svg>
