<svg width="49" height="40" viewBox="0 0 49 40" fill="none" xmlns="http://www.w3.org/2000/svg">
<g clip-path="url(#clip0_2482_83217)">
<path fill-rule="evenodd" clip-rule="evenodd" d="M22.1568 19.8906C22.1568 24.8014 22.1601 29.7118 22.1505 34.6222C22.1495 34.9677 22.1192 35.3412 21.9891 35.652C21.7351 36.2607 21.0252 36.6111 20.4267 36.507C19.7534 36.3899 19.15 35.7812 19.0532 35.0935C19.0214 34.8612 19.0416 34.6212 19.0416 34.3846C19.0411 24.652 19.0368 14.9195 19.0508 5.18746C19.0508 4.76192 19.1365 4.30071 19.312 3.91999C19.5982 3.29734 20.378 2.99325 20.9968 3.1571C21.6845 3.33879 22.1361 3.8771 22.1495 4.62698C22.1717 5.86843 22.1553 7.11132 22.1553 8.35373V19.8911L22.1568 19.8906ZM24.9987 19.8304C24.9982 14.773 25.0059 9.71469 24.9948 4.65734C24.99 2.33782 23.071 0.40192 20.8204 0.339751C18.6773 0.279992 16.3982 2.093 16.4035 4.98168C16.4228 14.8901 16.4011 24.7985 16.4247 34.707C16.4267 35.399 16.5486 36.1455 16.8228 36.7706C17.7163 38.8106 19.5611 39.6742 21.6382 39.2646C23.6324 38.8708 25.0324 36.8231 25.0146 34.9152C25.003 33.6583 24.9963 32.4014 24.9924 31.1441C24.9814 27.3735 24.9987 23.6019 24.9987 19.8304ZM7.18569 32.4747L7.00834 32.4699L4.51003 16.7894H0.604004V39.7258H3.33364V24.8304L3.49653 24.8217L6.00593 39.759H8.21364L10.4546 24.8164L10.6464 24.8332V39.7402H13.3226V16.7701H9.58955L7.18569 32.4747ZM33.216 24.6641H29.9062V16.7711C29.2821 16.7711 28.738 16.7667 28.1939 16.773C27.9115 16.7764 27.6291 16.799 27.3057 16.8149V39.4332H29.9462V27.5585H33.2695V39.4424H35.9163V16.8159H33.216V24.6636V24.6641ZM45.0724 35.2679C45.0614 36.4448 44.0098 37.1802 42.9838 36.7581C42.4059 36.5205 42.0662 36.0535 41.9785 35.4145C41.9428 35.1513 41.9592 34.8795 41.9592 34.6111C41.9573 30.2906 41.9544 25.9701 41.9606 21.6491C41.9606 21.3263 41.9741 20.987 42.0681 20.6843C42.3201 19.8742 42.9953 19.4708 43.8151 19.5846C44.5274 19.6838 45.0671 20.3157 45.0724 21.1441C45.0874 23.4978 45.0777 25.852 45.0777 28.2063C45.0787 30.5605 45.0941 32.9147 45.0724 35.2679ZM47.911 33.5571C47.9052 31.7913 47.9173 30.0251 47.9177 28.2593C47.9177 25.9046 47.9057 23.5499 47.9211 21.1957C47.9389 18.4101 45.2575 15.8699 42.0512 17.08C40.3452 17.7229 39.3269 19.3865 39.3206 21.4323C39.3076 25.9923 39.3148 30.5528 39.3226 35.1128C39.323 35.4366 39.3852 35.7624 39.4373 36.0838C39.8233 38.4598 41.7794 39.9942 44.1732 39.7292C46.3067 39.4925 47.9495 37.4737 47.924 35.3229C47.9172 34.7343 47.9129 34.1457 47.911 33.5571Z" fill="#FF5F56"/>
</g>
<defs>
<clipPath id="clip0_2482_83217">
<rect width="47.7108" height="40" fill="white" transform="translate(0.604004)"/>
</clipPath>
</defs>
</svg>
